<?xml version="1.0" encoding="utf-8"?>
<!-- Generator: Adobe Illustrator 24.1.3, SVG Export Plug-In . SVG Version: 6.00 Build 0)  -->
<svg version="1.1" xmlns="http://www.w3.org/2000/svg" xmlns:xlink="http://www.w3.org/1999/xlink" x="0px" y="0px"
	 viewBox="0 0 2475 1650" style="enable-background:new 0 0 2475 1650;" xml:space="preserve">
<style type="text/css">
	.st0{fill:url(#SVGID_1_);}
	.st1{fill:#91B3FA;}
	.st2{fill:#7D97F4;}
	.st3{fill:#BDD0FB;}
	.st4{fill:#DCE5FE;}
	.st5{fill:#F0F0F0;}
	.st6{fill:url(#SVGID_2_);}
	.st7{fill:url(#SVGID_3_);}
	.st8{fill:#FFFFFF;}
	.st9{fill:url(#SVGID_4_);}
	.st10{fill:url(#SVGID_5_);}
	.st11{fill:url(#SVGID_6_);}
	.st12{fill:url(#SVGID_7_);}
	.st13{fill:url(#SVGID_8_);}
	.st14{fill:url(#SVGID_9_);}
	.st15{fill:url(#SVGID_10_);}
	.st16{fill:url(#SVGID_11_);}
	.st17{fill:url(#SVGID_12_);}
	.st18{fill:url(#SVGID_13_);}
	.st19{fill:url(#SVGID_14_);}
	.st20{fill:url(#SVGID_15_);}
	.st21{fill:url(#SVGID_16_);}
	.st22{fill:url(#SVGID_17_);}
	.st23{fill:url(#SVGID_18_);}
	.st24{fill:url(#SVGID_19_);}
	.st25{fill:url(#SVGID_20_);}
	.st26{fill:url(#SVGID_21_);}
	.st27{fill:url(#SVGID_22_);}
	.st28{fill:url(#SVGID_23_);}
	.st29{clip-path:url(#SVGID_25_);}
	.st30{fill:url(#SVGID_26_);}
	.st31{fill:url(#SVGID_27_);}
	.st32{fill:url(#SVGID_28_);}
	.st33{fill:url(#SVGID_29_);}
	.st34{fill:url(#SVGID_30_);}
	.st35{fill:url(#SVGID_31_);}
	.st36{fill:url(#SVGID_32_);}
	.st37{fill:url(#SVGID_33_);}
	.st38{fill:url(#SVGID_34_);}
	.st39{fill:url(#SVGID_35_);}
	.st40{fill:url(#SVGID_36_);}
	.st41{fill:url(#SVGID_37_);}
	.st42{fill:url(#SVGID_38_);}
	.st43{fill:url(#SVGID_39_);}
	.st44{fill:url(#SVGID_40_);}
	.st45{fill:url(#SVGID_41_);}
	.st46{fill:url(#SVGID_42_);}
	.st47{fill:url(#SVGID_43_);}
	.st48{fill:url(#SVGID_44_);}
	.st49{fill:url(#SVGID_45_);}
	.st50{fill:url(#SVGID_46_);}
	.st51{fill:url(#SVGID_47_);}
	.st52{fill:url(#SVGID_48_);}
	.st53{fill:url(#SVGID_49_);}
	.st54{fill:url(#SVGID_50_);}
	.st55{fill:url(#SVGID_51_);}
	.st56{fill:url(#SVGID_52_);}
	.st57{fill:url(#SVGID_53_);}
	.st58{fill:url(#SVGID_54_);}
	.st59{fill:url(#SVGID_55_);}
	.st60{fill:url(#SVGID_56_);}
	.st61{fill:url(#SVGID_57_);}
	.st62{fill:url(#SVGID_58_);}
	.st63{fill:url(#SVGID_59_);}
	.st64{fill:url(#SVGID_60_);}
	.st65{fill:url(#SVGID_61_);}
	.st66{fill:url(#SVGID_62_);}
	.st67{fill:url(#SVGID_63_);}
	.st68{fill:url(#SVGID_64_);}
	.st69{fill:url(#SVGID_65_);}
	.st70{fill:url(#SVGID_66_);}
	.st71{fill:url(#SVGID_67_);}
	.st72{fill:url(#SVGID_68_);}
	.st73{fill:url(#SVGID_69_);}
	.st74{fill:url(#SVGID_70_);}
	.st75{fill:url(#SVGID_71_);}
	.st76{fill:url(#SVGID_72_);}
	.st77{fill:url(#SVGID_73_);}
	.st78{fill:url(#SVGID_74_);}
	.st79{fill:url(#SVGID_75_);}
	.st80{fill:url(#SVGID_76_);}
	.st81{fill:url(#SVGID_77_);}
	.st82{fill:url(#SVGID_78_);}
	.st83{fill:url(#SVGID_79_);}
	.st84{fill:url(#SVGID_80_);}
	.st85{fill:url(#SVGID_81_);}
	.st86{fill:url(#SVGID_82_);}
	.st87{fill:url(#SVGID_83_);}
	.st88{fill:url(#SVGID_84_);}
	.st89{fill:url(#SVGID_85_);}
	.st90{fill:url(#SVGID_86_);}
	.st91{fill:url(#SVGID_87_);}
	.st92{fill:url(#SVGID_88_);}
	.st93{fill:url(#SVGID_89_);}
	.st94{fill:url(#SVGID_90_);}
	.st95{fill:url(#SVGID_91_);}
	.st96{fill:url(#SVGID_92_);}
	.st97{fill:url(#SVGID_93_);}
	.st98{fill:url(#SVGID_94_);}
	.st99{fill:url(#SVGID_95_);}
	.st100{fill:url(#SVGID_96_);}
	.st101{fill:url(#SVGID_97_);}
	.st102{fill:url(#SVGID_98_);}
	.st103{fill:url(#SVGID_99_);}
	.st104{fill:url(#SVGID_100_);}
	.st105{fill:url(#SVGID_101_);}
	.st106{fill:url(#SVGID_102_);}
	.st107{fill:url(#SVGID_103_);}
	.st108{fill:url(#SVGID_104_);}
	.st109{fill:url(#SVGID_105_);}
	.st110{fill:url(#SVGID_106_);}
	.st111{fill:url(#SVGID_107_);}
	.st112{fill:url(#SVGID_108_);}
	.st113{fill:url(#SVGID_109_);}
	.st114{fill:url(#SVGID_110_);}
	.st115{fill:url(#SVGID_111_);}
	.st116{fill:url(#SVGID_112_);}
	.st117{fill:url(#SVGID_113_);}
	.st118{fill:url(#SVGID_114_);}
	.st119{fill:url(#SVGID_115_);}
	.st120{fill:url(#SVGID_116_);}
	.st121{fill:url(#SVGID_117_);}
	.st122{fill:url(#SVGID_118_);}
	.st123{fill:url(#SVGID_119_);}
	.st124{fill:url(#SVGID_120_);}
	.st125{fill:url(#SVGID_121_);}
	.st126{fill:url(#SVGID_122_);}
	.st127{fill:url(#SVGID_123_);}
	.st128{fill:url(#SVGID_124_);}
	.st129{fill:url(#SVGID_125_);}
	.st130{fill:url(#SVGID_126_);}
	.st131{fill:url(#SVGID_127_);}
	.st132{fill:url(#SVGID_128_);}
	.st133{fill:url(#SVGID_129_);}
	.st134{fill:url(#SVGID_130_);}
	.st135{fill:url(#SVGID_131_);}
	.st136{fill:url(#SVGID_132_);}
	.st137{fill:url(#SVGID_133_);}
	.st138{fill:url(#SVGID_134_);}
	.st139{fill:url(#SVGID_135_);}
	.st140{fill:url(#SVGID_136_);}
	.st141{fill:url(#SVGID_137_);}
	.st142{fill:url(#SVGID_138_);}
	.st143{fill:url(#SVGID_139_);}
	.st144{fill:url(#SVGID_140_);}
	.st145{fill:url(#SVGID_141_);}
	.st146{fill:url(#SVGID_142_);}
	.st147{fill:url(#SVGID_143_);}
	.st148{fill:url(#SVGID_144_);}
	.st149{fill:url(#SVGID_145_);}
	.st150{fill:url(#SVGID_146_);}
	.st151{fill:url(#SVGID_147_);}
	.st152{fill:url(#SVGID_148_);}
	.st153{fill:url(#SVGID_149_);}
	.st154{fill:url(#SVGID_150_);}
	.st155{fill:url(#SVGID_151_);}
	.st156{fill:url(#SVGID_152_);}
	.st157{fill:url(#SVGID_153_);}
	.st158{fill:url(#SVGID_154_);}
	.st159{fill:url(#SVGID_155_);}
	.st160{fill:url(#SVGID_156_);}
	.st161{fill:url(#SVGID_157_);}
	.st162{fill:url(#SVGID_158_);}
	.st163{fill:url(#SVGID_159_);}
	.st164{fill:url(#SVGID_160_);}
	.st165{fill:url(#SVGID_161_);}
</style>
<g id="Background">
</g>
<g id="Illustration">
	<g>
		
			<linearGradient id="SVGID_1_" gradientUnits="userSpaceOnUse" x1="-1679.8405" y1="3331.1541" x2="752.8405" y2="3331.1541" gradientTransform="matrix(-1 0 0 -1 774 4250)">
			<stop  offset="0" style="stop-color:#DAE3FE"/>
			<stop  offset="1" style="stop-color:#E9EFFD"/>
		</linearGradient>
		<path class="st0" d="M48.3,860.1C76.5,910,121.4,952,155.9,998.7c99.9,134.9-4,292.8,41.5,438.2
			c39.7,126.7,204.9,160.7,325.6,165.8c203.4,8.7,406.6-4.3,602.7-59.5c136.1-38.3,272.4-88.4,415.8-91.4
			c146.6-3.1,284.6,55.8,426.2,83.6c155.6,30.6,341.6-2.6,379.1-176.3c23.2-107.6-39.3-206.7-45.2-312.7
			C2294,906.2,2433.9,829.2,2452,698c11.4-82.7-31.2-156.6-86.8-216.4c-58.7-63.1-137.6-118.9-228.1-124.1
			c-94.6-5.4-179.1,44.3-267.5,68c-248.6,66.7-389.7-155.7-618.4-186.7c-103.2-14-229.9-7.3-323.6,40.7
			c-87.1,44.7-129.4,143.9-227.1,173c-103.4,30.8-198-30.8-296.3-50.5c-101.7-20.4-197.9,15.8-261.5,95.1
			C80.9,574.1,14.1,675.4,21.8,776.9C24.1,807.7,34.1,834.9,48.3,860.1z"/>
		<g>
			<g>
				<path class="st1" d="M670.7,1572.3c-60.6,12.1-138.1-54-163-126.2c-25.7-74.3,21.4-105.5,21-208.6
					c-0.4-117.2-61.4-134.8-101.7-292.7c-9.1-35.6-61.7-241.8,3.5-280.5c60.3-35.7,229.7,66.8,259.4,198.1
					c21.2,93.6-44.3,132.9-19.3,241.9c21.9,95.6,79.6,97,101.7,189.3C799.2,1406,750.3,1556.4,670.7,1572.3z"/>
				<path class="st2" d="M666.2,1600.7c16.3-126.2-15.5-321-45.2-462.1c-32.1-152.8-68.5-277.5-68.9-278.7l-5,1.5
					c0.4,1.2,36.7,125.7,68.8,278.3c29.5,140.7,61.3,334.8,45.1,460.3L666.2,1600.7z"/>
			</g>
			<g>
				<path class="st3" d="M600.8,1558.2c79.5-41.4,106.8-183.8,61.6-230c-30.6-31.3-74.4,1.6-116.6-30.8
					c-54-41.4-14.3-119.3-56.7-220.3c-36.1-86-122.7-167.3-173.3-150.6c-53,17.5-80.9,147.1-35.6,225.2
					c29.4,50.7,74.5,53.2,84.2,100.4c11.3,54.8-43.4,79.7-43.7,132.8C320,1480.3,495.6,1613.1,600.8,1558.2z"/>
				<path class="st1" d="M557.9,1594.7c0.5,0,1-0.1,1.4-0.3c1.6-0.8,2.3-2.7,1.5-4.3c-105.5-217.3-136.4-469.4-136.7-471.9
					c-0.2-1.8-1.8-3-3.6-2.8c-1.8,0.2-3,1.8-2.8,3.6c0.3,2.5,31.4,255.7,137.3,474C555.5,1594,556.7,1594.7,557.9,1594.7z"/>
				<path class="st4" d="M341.5,1183.4c0.3,0,0.7-0.1,1-0.3c0.7-0.5,0.8-1.5,0.3-2.2c-33.3-42.7-70.2-106.9-56.9-170.1
					c7.9-37.6,30.2-57.2,30.4-57.4c0.6-0.6,0.7-1.5,0.2-2.2c-0.6-0.6-1.5-0.7-2.2-0.2c-0.9,0.8-23.3,20.5-31.4,59.1
					c-7.5,35.5-3.6,94.3,57.5,172.6C340.6,1183.2,341.1,1183.4,341.5,1183.4z"/>
				<path class="st5" d="M608,1539.3c0.5,0,1-0.2,1.3-0.7c51.2-74.7,68.6-132.3,51.8-171.4c-14.9-34.8-52.5-41.2-52.9-41.3
					c-0.8-0.1-1.6,0.4-1.8,1.3c-0.1,0.8,0.4,1.6,1.3,1.8c0.4,0.1,36.3,6.3,50.5,39.5c16.3,38.1-1.1,94.7-51.6,168.4
					c-0.5,0.7-0.3,1.7,0.4,2.2C607.4,1539.2,607.7,1539.3,608,1539.3z"/>
			</g>
		</g>
		<g>
			<g>
				<path class="st1" d="M1817.4,1572.3c60.6,12.1,138.1-54,163-126.2c25.7-74.3-21.4-105.5-21-208.6
					c0.4-117.2,61.4-134.8,101.7-292.7c9.1-35.6,61.7-241.8-3.5-280.5c-60.3-35.7-229.7,66.8-259.4,198.1
					c-21.2,93.6,44.3,132.9,19.3,241.9c-21.9,95.6-79.6,97-101.7,189.3C1688.8,1406,1737.8,1556.4,1817.4,1572.3z"/>
				<path class="st2" d="M1821.8,1600.7c-16.3-126.2,15.5-321,45.2-462.1c32.1-152.8,68.5-277.5,68.9-278.7l5,1.5
					c-0.4,1.2-36.7,125.7-68.8,278.3c-29.5,140.7-61.3,334.8-45.1,460.3L1821.8,1600.7z"/>
			</g>
			<g>
				<path class="st3" d="M1887.2,1558.2c-79.5-41.4-106.8-183.8-61.6-230c30.6-31.3,74.4,1.6,116.6-30.8
					c54-41.4,14.3-119.3,56.7-220.3c36.1-86,122.7-167.3,173.3-150.6c53,17.5,80.9,147.1,35.6,225.2
					c-29.4,50.7-74.5,53.2-84.2,100.4c-11.3,54.8,43.4,79.7,43.7,132.8C2168,1480.3,1992.5,1613.1,1887.2,1558.2z"/>
				<path class="st1" d="M1930.2,1594.7c-0.5,0-1-0.1-1.4-0.3c-1.6-0.8-2.3-2.7-1.5-4.3c105.5-217.3,136.4-469.4,136.7-471.9
					c0.2-1.8,1.8-3,3.6-2.8c1.8,0.2,3,1.8,2.8,3.6c-0.3,2.5-31.4,255.7-137.3,474C1932.5,1594,1931.4,1594.7,1930.2,1594.7z"/>
				<path class="st4" d="M2146.5,1183.4c-0.3,0-0.7-0.1-1-0.3c-0.7-0.5-0.8-1.5-0.3-2.2c33.3-42.7,70.2-106.9,56.9-170.1
					c-7.9-37.6-30.2-57.2-30.4-57.4c-0.6-0.6-0.7-1.5-0.2-2.2c0.6-0.6,1.5-0.7,2.2-0.2c0.9,0.8,23.3,20.5,31.4,59.1
					c7.5,35.5,3.6,94.3-57.5,172.6C2147.4,1183.2,2147,1183.4,2146.5,1183.4z"/>
				<path class="st5" d="M1880.1,1539.3c-0.5,0-1-0.2-1.3-0.7c-51.2-74.7-68.6-132.3-51.8-171.4c14.9-34.8,52.5-41.2,52.9-41.3
					c0.8-0.1,1.6,0.4,1.8,1.3c0.1,0.8-0.4,1.6-1.3,1.8c-0.4,0.1-36.3,6.3-50.5,39.5c-16.3,38.1,1.1,94.7,51.6,168.4
					c0.5,0.7,0.3,1.7-0.4,2.2C1880.7,1539.2,1880.4,1539.3,1880.1,1539.3z"/>
			</g>
		</g>
		<g>
			<linearGradient id="SVGID_2_" gradientUnits="userSpaceOnUse" x1="1212.0436" y1="561.3933" x2="1278.7151" y2="2144.8604">
				<stop  offset="0" style="stop-color:#FE7062"/>
				<stop  offset="1" style="stop-color:#FF928E"/>
			</linearGradient>
			<path class="st6" d="M582.9,832.5v665.3c0,49,43,88.6,96,88.6h1117.1c53,0,96-39.7,96-88.6V832.5H582.9z"/>
			<linearGradient id="SVGID_3_" gradientUnits="userSpaceOnUse" x1="1211.4707" y1="214.5222" x2="1275.946" y2="1745.832">
				<stop  offset="0" style="stop-color:#E1473D"/>
				<stop  offset="1" style="stop-color:#E9605A"/>
			</linearGradient>
			<path class="st7" d="M1565.5,634.4l-284-171.8c-27.6-16.7-60.4-16.7-88.1,0l-284,171.8l-328,198.4l328,197.9l328,197.9l328-198.1
				l328-197.7L1565.5,634.4z"/>
			<g>
				<g>
					<path class="st8" d="M608.5,1557.7c-0.5,0-1.1-0.2-1.5-0.6c-0.9-0.8-1-2.3-0.2-3.2l409.1-460.2c0.8-0.9,2.3-1,3.2-0.2
						c0.9,0.8,1,2.3,0.2,3.2l-409.1,460.2C609.8,1557.4,609.2,1557.7,608.5,1557.7z"/>
				</g>
				<g>
					<path class="st8" d="M1866.5,1557.7c-0.6,0-1.3-0.3-1.7-0.8l-409.1-460.2c-0.8-0.9-0.8-2.4,0.2-3.2c0.9-0.8,2.4-0.8,3.2,0.2
						l409.1,460.2c0.8,0.9,0.8,2.4-0.2,3.2C1867.6,1557.5,1867,1557.7,1866.5,1557.7z"/>
				</g>
			</g>
		</g>
		<g>
			<g>
				<g>
					<path d="M1669,1243.1c0,0-13.5-16.2,4.8-26.1c18.3-10,47.2,1,50.8,22.2c3.6,21.2,21.9,8.6,29.8,4c7.9-4.6,30.1-10.9,35.8,13.2
						c2.2,9.6-0.6,21.8,3.6,30.7c5.7,12.3,24.4,9.1,34.5,13.8c13.2,6.1,20.1,17.9,13.2,31.7c-10.6,21.2-31.5,34.7-20.2,53.1
						c11.3,18.4-34.1,59.8-49.7,21.4c-15.6-38.4-39.7-31.9-59.3-34.3s-29.5-19.3-24.2-36.5s-1.7-27.5-8.9-34.8
						S1647.5,1262.7,1669,1243.1z"/>
					<g>
						<linearGradient id="SVGID_4_" gradientUnits="userSpaceOnUse" x1="1667.494" y1="1623.7001" x2="1632.0656" y2="1463.1871">
							<stop  offset="0" style="stop-color:#FF928E"/>
							<stop  offset="1" style="stop-color:#FEB3B1"/>
						</linearGradient>
						<path class="st9" d="M1640.7,1449.3c0,0-14.7,2.3-31.3,13.3c-2.6,1.7-4,4.8-3.6,7.9c2,15.7,10.1,66.5,37,116.1
							c1.4,2.6,1.8,5.7,1.2,8.6l-4.7,21.7l-8.7,8.1h22.3l14.8-40.2l-6.3-2c-4.9-1.6-8.3-6.1-8.4-11.2l-0.7-43.1
							c0.6-19.2-11.8-32.4-11.8-32.4l35.6-1.7L1640.7,1449.3z"/>
						
							<linearGradient id="SVGID_5_" gradientUnits="userSpaceOnUse" x1="5457.9365" y1="529.303" x2="5468.0767" y2="618.0272" gradientTransform="matrix(1 0 0 1 -3933.9565 0)">
							<stop  offset="0" style="stop-color:#4042E2"/>
							<stop  offset="1" style="stop-color:#4F52FF"/>
						</linearGradient>
						<path class="st10" d="M1621.9,1628.9c-2,2.7,21.8,6.2,33.9,0.4c0,0,16.7-29.1,16.7-44.1c0,0-1.3-3.1-11.1-2.4
							c0,0-5.6,34.4-11.5,38.3c-5.9,3.9-16.6,0.4-16.6,0.4S1624.9,1625,1621.9,1628.9z"/>
						<linearGradient id="SVGID_6_" gradientUnits="userSpaceOnUse" x1="1729.751" y1="1239.1774" x2="1646.6021" y2="1441.6266">
							<stop  offset="0" style="stop-color:#FF928E"/>
							<stop  offset="1" style="stop-color:#FEB3B1"/>
						</linearGradient>
						<path class="st11" d="M1671.6,1496.7c-0.2-0.3-38.3-4.6-38.3-4.6s1.2,11.6-2.7,27.6c-3.9,16-59.9,85.1-59.9,85.1l5.9,18.6
							c-18.1,6.3-36,7.3-53.6,3.2l36.4-21.8c0,0,34-116,54.9-136.7l38.2-13.2L1671.6,1496.7z"/>
						
							<linearGradient id="SVGID_7_" gradientUnits="userSpaceOnUse" x1="882.4526" y1="1449.1849" x2="968.6421" y2="1617.7611" gradientTransform="matrix(1 0 0 1 808.2122 0)">
							<stop  offset="0" style="stop-color:#09005D"/>
							<stop  offset="1" style="stop-color:#1A0F91"/>
						</linearGradient>
						<path class="st12" d="M1757.1,1429.2c0,0,22,32.7,23.8,47.6c1.8,14.9-6,21-29.1,22c-23,1-84.6,1-84.6,1l-52.5-44.9
							c0,0,38.3-13.7,48.2-17.5C1672.9,1433.4,1757.1,1429.2,1757.1,1429.2z"/>
						
							<linearGradient id="SVGID_8_" gradientUnits="userSpaceOnUse" x1="5354.895" y1="541.0902" x2="5365.0347" y2="629.8133" gradientTransform="matrix(1 0 0 1 -3933.9565 0)">
							<stop  offset="0" style="stop-color:#4042E2"/>
							<stop  offset="1" style="stop-color:#4F52FF"/>
						</linearGradient>
						<path class="st13" d="M1574.4,1617.1c0,0,6.3,6.1,2.1,12.9c0,0-50.1,8.9-63.7,4.8c0,0,2.8-6.4,18.1-13.8l-1.1,0.9
							c-1.4,1.1-0.6,3.4,1.2,3.3C1541.1,1624.7,1561.9,1622.8,1574.4,1617.1z"/>
					</g>
					
						<linearGradient id="SVGID_9_" gradientUnits="userSpaceOnUse" x1="5621.9443" y1="1326.6415" x2="5700.8774" y2="1498.4362" gradientTransform="matrix(1 0 0 1 -3933.9565 0)">
						<stop  offset="0" style="stop-color:#4042E2"/>
						<stop  offset="1" style="stop-color:#4F52FF"/>
					</linearGradient>
					<path class="st14" d="M1697.7,1424.9c0,0-25.6-24.4-38.2-40.5c-6.8-8.7-8.9-20.2-5.8-30.8c5.7-19.4,16-39.4,16.9-42.6
						c1.4-4.8,30.1-4.6,30.1-4.6s56.4,36.6,78.6,98.7l-24.9,7.8c0,0-14.7-24.7-29.3-40.4c0,0,25.2,33.3,26.1,46.9L1697.7,1424.9z"/>
					<linearGradient id="SVGID_10_" gradientUnits="userSpaceOnUse" x1="1669.1877" y1="1264.031" x2="1704.6163" y2="1350.7949">
						<stop  offset="0" style="stop-color:#FF928E"/>
						<stop  offset="1" style="stop-color:#FEB3B1"/>
					</linearGradient>
					<path class="st15" d="M1667.1,1284.3c0.3,1,7.8,25.8,8.4,26.3c0.6,0.5,16.4,1.4,23.9-3.7l-12.6-26.5L1667.1,1284.3z"/>
					
						<linearGradient id="SVGID_11_" gradientUnits="userSpaceOnUse" x1="1367.3558" y1="1700.4125" x2="1423.0294" y2="1694.6282" gradientTransform="matrix(1 0 0 1 -3933.9565 0)">
						<stop  offset="0" style="stop-color:#FF928E"/>
						<stop  offset="1" style="stop-color:#FEB3B1"/>
					</linearGradient>
					<path class="st16" d="M1679.4,1232.1c0,0-13.5,5.7-22.7,25.2c-9.2,19.5-2.3,28.5,6.3,29.8c8.6,1.2,21.5,1,35.1-11.6
						C1711.8,1263,1697,1225.4,1679.4,1232.1z"/>
					<path d="M1689,1265.2c0,0,10.2-28.6-15.1-28.9l-6,4.2c0,0-9.3-15.8,6-23.4c15.3-7.6,38-0.8,44.5,19.7
						c6.5,20.6,2.7,33.8-8.1,43.7c-10.8,9.8-15.3-1.3-15.3-1.3s5.9-9.2,3.5-14.1c-2.4-4.9-7.9,1-7.9,1L1689,1265.2z"/>
					
						<linearGradient id="SVGID_12_" gradientUnits="userSpaceOnUse" x1="1368.4139" y1="1710.4966" x2="1424.0874" y2="1704.7123" gradientTransform="matrix(1 0 0 1 -3933.9565 0)">
						<stop  offset="0" style="stop-color:#FF928E"/>
						<stop  offset="1" style="stop-color:#FEB3B1"/>
					</linearGradient>
					<path class="st17" d="M1686.3,1269.7c0,0,5.2-14.7,12-8.9c6.9,5.9-5.6,13.6-10.5,16.1L1686.3,1269.7z"/>
					<linearGradient id="SVGID_13_" gradientUnits="userSpaceOnUse" x1="1862.6213" y1="1432.163" x2="1691.9855" y2="1416.9791">
						<stop  offset="0" style="stop-color:#FF928E"/>
						<stop  offset="1" style="stop-color:#FEB3B1"/>
					</linearGradient>
					<path class="st18" d="M1645.6,1426.7l18.8-18.1l26,11c0,0,25.9,4,40.7,0c14.8-4,14.8-4,14.8-4l33.5-10.4l5.3,14.9
						c1.3,3.8,0,8-3.3,10.3c-2.9,2.1-6.3,4.3-8.5,5.3c-4.4,1.9-108.7-1.3-108.7-1.3L1645.6,1426.7z"/>
				</g>
				<g>
					<path class="st3" d="M1782.1,1266.9l-0.9-0.1c0.8-7.1-0.4-11.8-3.6-14.5c-6.3-5.2-19.5-1.1-31.1,2.5
						c-5.9,1.8-11.4,3.6-15.3,3.8c-3,0.2-5.4-0.6-7.1-2.4c-3.2-3.2-2.9-8.3-2.9-8.5l0.9,0c0,0-0.2,4.9,2.7,7.8
						c1.5,1.5,3.7,2.2,6.4,2.1c3.8-0.2,9.3-1.9,15.1-3.7c11.8-3.7,25.2-7.8,32-2.3C1781.6,1254.5,1782.9,1259.5,1782.1,1266.9z"/>
				</g>
				<g>
					<path class="st3" d="M1809.8,1373.9c-2.1-8.6,3.6-15.9,10.1-24.3c4.7-6.1,10-12.9,12.9-21.2c1.4-3.9,1.1-7.6-0.9-10.7
						c-6.1-9.9-26.3-12.8-26.5-12.9l0.1-0.9c0.8,0.1,20.8,3,27.1,13.3c2.1,3.4,2.4,7.3,1,11.5c-2.9,8.4-8.3,15.3-13,21.4
						c-6.4,8.2-11.9,15.3-9.9,23.5L1809.8,1373.9z"/>
				</g>
			</g>
			<g>
				
					<linearGradient id="SVGID_14_" gradientUnits="userSpaceOnUse" x1="5639.9678" y1="1622.8219" x2="5661.3662" y2="1488.2196" gradientTransform="matrix(1 0 0 1 -3933.9565 0)">
					<stop  offset="0" style="stop-color:#4042E2"/>
					<stop  offset="1" style="stop-color:#4F52FF"/>
				</linearGradient>
				<rect x="1708.8" y="1520.7" class="st19" width="9.9" height="107.1"/>
				
					<linearGradient id="SVGID_15_" gradientUnits="userSpaceOnUse" x1="5648.5488" y1="1624.186" x2="5669.9468" y2="1489.5845" gradientTransform="matrix(1 0 0 1 -3933.9565 0)">
					<stop  offset="0" style="stop-color:#4042E2"/>
					<stop  offset="1" style="stop-color:#4F52FF"/>
				</linearGradient>
				<path class="st20" d="M1757.1,1629.8h-86.7l0,0c0-3.6,2.9-6.4,6.4-6.4h73.8C1754.2,1623.4,1757.1,1626.2,1757.1,1629.8
					L1757.1,1629.8z"/>
				
					<linearGradient id="SVGID_16_" gradientUnits="userSpaceOnUse" x1="5632.0156" y1="1621.5575" x2="5653.4141" y2="1486.9553" gradientTransform="matrix(1 0 0 1 -3933.9565 0)">
					<stop  offset="0" style="stop-color:#4042E2"/>
					<stop  offset="1" style="stop-color:#4F52FF"/>
				</linearGradient>
				<path class="st21" d="M1770,1517c0,5.9-4.8,10.6-10.6,10.6h-87.7c-5.9,0-10.6-4.8-10.6-10.6v-9.6c0-5.9,4.8-10.6,10.6-10.6h87.7
					c5.9,0,10.6,4.8,10.6,10.6V1517z"/>
			</g>
			<g>
				
					<linearGradient id="SVGID_17_" gradientUnits="userSpaceOnUse" x1="5579.7002" y1="1770.7921" x2="5491.8569" y2="1794.8677" gradientTransform="matrix(0.9988 -4.940000e-02 4.940000e-02 0.9988 -3925.2852 -86.798)">
					<stop  offset="0" style="stop-color:#09005D"/>
					<stop  offset="1" style="stop-color:#1A0F91"/>
				</linearGradient>
				<path class="st22" d="M1716.7,1435.2c-0.1,0-0.2,0-0.3,0l-109-0.1c-2.7,0-4.9-2.2-4.9-4.9c0-2.7,2.2-4.9,4.9-4.9l109,0.1
					c2.7,0,4.9,2.2,4.9,4.9C1721.3,1432.9,1719.3,1435.1,1716.7,1435.2z"/>
				<linearGradient id="SVGID_18_" gradientUnits="userSpaceOnUse" x1="1521.1927" y1="1427.9043" x2="1618.8019" y2="1360.6626">
					<stop  offset="0" style="stop-color:#09005D"/>
					<stop  offset="1" style="stop-color:#1A0F91"/>
				</linearGradient>
				<path class="st23" d="M1509.4,1336.2h90.8c6.7,0,12.8,3.9,15.7,9.9l42,89H1545c-4.3,0-8.2-2.6-9.8-6.7l-32.6-82.4
					C1500.8,1341.4,1504.3,1336.2,1509.4,1336.2z"/>
			</g>
			<g>
				<linearGradient id="SVGID_19_" gradientUnits="userSpaceOnUse" x1="1404.5226" y1="1444.4888" x2="1869.1654" y2="1444.4888">
					<stop  offset="0" style="stop-color:#DAE3FE"/>
					<stop  offset="1" style="stop-color:#E9EFFD"/>
				</linearGradient>
				<path class="st24" d="M1869.1,1439.2c0.3-1.2-0.1-2.5-0.9-3.5c-0.9-1-2.1-1.5-3.5-1.5h-455c-1.8,0-3.4,0.8-4.4,2.2
					c-1,1.4-1.1,3.1-0.3,4.7l4.9,10c1.1,2.3,3.6,3.8,6.3,3.8h445.3c2.5,0,4.7-1.7,5.1-4L1869.1,1439.2z"/>
				<g>
					<linearGradient id="SVGID_20_" gradientUnits="userSpaceOnUse" x1="1431.2094" y1="1546.3315" x2="1522.9326" y2="1546.3315">
						<stop  offset="0" style="stop-color:#DAE3FE"/>
						<stop  offset="1" style="stop-color:#E9EFFD"/>
					</linearGradient>
					<path class="st25" d="M1435.2,1650c-0.5,0-1.1-0.1-1.6-0.3c-2-0.9-3-3.3-2.1-5.4l83.7-199.2c0.9-2.1,3.2-3,5.2-2.1
						c2,0.9,3,3.3,2.1,5.4l-83.7,199.2C1438.2,1649.1,1436.7,1650,1435.2,1650z"/>
					<linearGradient id="SVGID_21_" gradientUnits="userSpaceOnUse" x1="1441.8015" y1="1546.3312" x2="1533.525" y2="1546.3312">
						<stop  offset="0" style="stop-color:#DAE3FE"/>
						<stop  offset="1" style="stop-color:#E9EFFD"/>
					</linearGradient>
					<path class="st26" d="M1529.5,1650c-1.5,0-3-0.9-3.7-2.5l-83.7-199.2c-0.9-2.1,0.1-4.5,2.1-5.4c2-0.9,4.4,0.1,5.2,2.1
						l83.7,199.2c0.9,2.1-0.1,4.5-2.1,5.4C1530.6,1649.9,1530.1,1650,1529.5,1650z"/>
					<linearGradient id="SVGID_22_" gradientUnits="userSpaceOnUse" x1="1760.9519" y1="1546.3315" x2="1852.6753" y2="1546.3315">
						<stop  offset="0" style="stop-color:#DAE3FE"/>
						<stop  offset="1" style="stop-color:#E9EFFD"/>
					</linearGradient>
					<path class="st27" d="M1764.9,1650c-0.5,0-1.1-0.1-1.6-0.3c-2-0.9-3-3.3-2.1-5.4l83.7-199.2c0.9-2.1,3.2-3,5.2-2.1
						c2,0.9,3,3.3,2.1,5.4l-83.7,199.2C1768,1649.1,1766.5,1650,1764.9,1650z"/>
					<linearGradient id="SVGID_23_" gradientUnits="userSpaceOnUse" x1="1771.5436" y1="1546.3312" x2="1863.2668" y2="1546.3312">
						<stop  offset="0" style="stop-color:#DAE3FE"/>
						<stop  offset="1" style="stop-color:#E9EFFD"/>
					</linearGradient>
					<path class="st28" d="M1859.3,1650c-1.5,0-3-0.9-3.7-2.5l-83.7-199.2c-0.9-2.1,0.1-4.5,2.1-5.4c2-0.9,4.4,0.1,5.2,2.1
						l83.7,199.2c0.9,2.1-0.1,4.5-2.1,5.4C1860.3,1649.9,1859.8,1650,1859.3,1650z"/>
				</g>
			</g>
		</g>
		<g>
			<defs>
				<polygon id="SVGID_24_" points="637.2,865.3 1238.3,1228.1 1805.1,886.7 1805.1,358.2 684.4,358.2 				"/>
			</defs>
			<clipPath id="SVGID_25_">
				<use xlink:href="#SVGID_24_"  style="overflow:visible;"/>
			</clipPath>
			<g class="st29">
				<g>
					<path class="st3" d="M1644.8,510.5H728.3c-16.2,0-29.5,14-29.5,30.2v743.7h1077.4V644.1L1644.8,510.5z"/>
					<path class="st1" d="M1775.7,644.1l-120.3,1c-3.2,0-5.7-1.2-7.9-3.5c-2.3-2.3-2.5-5.3-2.5-8.5V511.4L1775.7,644.1z"/>
				</g>
				<g>
					<linearGradient id="SVGID_26_" gradientUnits="userSpaceOnUse" x1="1288.135" y1="349.3581" x2="1174.3379" y2="1540.8849">
						<stop  offset="0" style="stop-color:#4042E2"/>
						<stop  offset="1" style="stop-color:#4F52FF"/>
					</linearGradient>
					<path class="st30" d="M1475.2,860.4c0,28-4.5,53.5-13.4,76.7c-8.9,23.2-21.6,41.4-37.9,54.6s-35.2,19.8-56.8,19.8
						c-14.4,0-27.1-3.4-38.2-10.3c-11.1-6.9-19-16-23.9-27.2h-4.7c-21,25-47.7,37.6-80.1,37.6c-34.4,0-61.5-10.3-81.3-31
						c-19.8-20.7-29.7-49-29.7-84.9c0-41,13-74,39-99c26-25,60-37.6,101.9-37.6c16.7,0,35.1,1.6,55.2,4.8c20.1,3.2,36.6,7,49.7,11.5
						l-6.7,142.4c0,27,7.4,40.5,22.1,40.5c12.4,0,22.3-9.1,29.7-27.2c7.4-18.2,11.1-41.9,11.1-71.2c0-31.3-6.5-58.9-19.5-82.9
						c-13-24-31.3-42.3-54.9-54.9s-50.5-18.9-80.8-18.9c-39.2,0-73.3,8.1-102.2,24.2c-28.9,16.1-51.1,39.4-66.5,69.8
						c-15.4,30.4-23.2,65.5-23.2,105.3c0,53.6,14.3,94.7,43,123.3c28.6,28.6,70.1,43,124.5,43c20.6,0,43.2-2.3,67.9-6.8
						c24.7-4.6,48.9-11.2,72.8-19.9v55.9c-41.5,17.7-87.7,26.5-138.3,26.5c-73.8,0-131.3-19.4-172.6-58.2
						c-41.3-38.8-61.9-92.8-61.9-161.9c0-48,10.5-91.5,31.6-130.6c21.1-39.1,51.1-69.8,90-92c38.9-22.2,83.7-33.3,134.4-33.3
						c42.7,0,80.9,8.7,114.5,26.2c33.6,17.5,59.5,42.3,77.8,74.6S1475.2,818.2,1475.2,860.4z M1177,896.8c0,41,16.7,61.5,50.1,61.5
						c17.5,0,30.8-6.2,39.9-18.5s14.7-32.4,16.6-60.1l3.8-64.4c-9.9-2.1-21.1-3.2-33.5-3.2c-24.3,0-43.2,7.6-56.6,22.7
						C1183.7,849.9,1177,870.6,1177,896.8z"/>
				</g>
			</g>
		</g>
		<g>
			<linearGradient id="SVGID_27_" gradientUnits="userSpaceOnUse" x1="2155.3853" y1="884.9552" x2="2158.3306" y2="884.9552">
				<stop  offset="0" style="stop-color:#DAE3FE"/>
				<stop  offset="1" style="stop-color:#E9EFFD"/>
			</linearGradient>
			<path class="st31" d="M2155.4,881.6l0.6,6.9l0,0c0.1,0.7,0.6,1.1,1.3,1.1c0.7-0.1,1.1-0.6,1.1-1.3l0,0l-0.6-6.9
				c-0.1-0.6-0.6-1.1-1.3-1C2155.8,880.4,2155.3,880.9,2155.4,881.6L2155.4,881.6z"/>
			<linearGradient id="SVGID_28_" gradientUnits="userSpaceOnUse" x1="2156.531" y1="907.9752" x2="2159.144" y2="907.9752">
				<stop  offset="0" style="stop-color:#DAE3FE"/>
				<stop  offset="1" style="stop-color:#E9EFFD"/>
			</linearGradient>
			<path class="st32" d="M2156.6,904.5l0,6.9l0,0c0,0.7,0.6,1.3,1.3,1.3c0.7,0,1.3-0.6,1.3-1.3v0l0-6.9c0-0.7-0.6-1.3-1.3-1.3
				C2157.1,903.2,2156.6,903.8,2156.6,904.5L2156.6,904.5z"/>
			<linearGradient id="SVGID_29_" gradientUnits="userSpaceOnUse" x1="2155.1343" y1="930.997" x2="2158.5378" y2="930.997">
				<stop  offset="0" style="stop-color:#DAE3FE"/>
				<stop  offset="1" style="stop-color:#E9EFFD"/>
			</linearGradient>
			<path class="st33" d="M2155.8,927.4l-0.6,6.9l0,0c-0.1,0.8,0.5,1.5,1.3,1.5c0.8,0.1,1.5-0.5,1.5-1.3l0,0l0.6-6.9
				c0.1-0.8-0.5-1.4-1.3-1.5C2156.5,926.1,2155.8,926.6,2155.8,927.4L2155.8,927.4z"/>
			<linearGradient id="SVGID_30_" gradientUnits="userSpaceOnUse" x1="2151.8323" y1="953.8577" x2="2156.0396" y2="953.8577">
				<stop  offset="0" style="stop-color:#DAE3FE"/>
				<stop  offset="1" style="stop-color:#E9EFFD"/>
			</linearGradient>
			<path class="st34" d="M2153,950.2l-1.2,6.8l0,0c-0.1,0.8,0.4,1.6,1.3,1.8c0.8,0.1,1.6-0.4,1.8-1.3l0,0l1.1-6.9
				c0.1-0.8-0.4-1.6-1.2-1.7C2154,948.8,2153.2,949.3,2153,950.2L2153,950.2z"/>
			<linearGradient id="SVGID_31_" gradientUnits="userSpaceOnUse" x1="2146.7056" y1="976.4049" x2="2151.6904" y2="976.4049">
				<stop  offset="0" style="stop-color:#DAE3FE"/>
				<stop  offset="1" style="stop-color:#E9EFFD"/>
			</linearGradient>
			<path class="st35" d="M2148.5,972.7l-1.7,6.7l0,0c-0.2,0.9,0.3,1.8,1.2,2c0.9,0.2,1.8-0.3,2-1.2l0,0l1.7-6.7
				c0.2-0.9-0.3-1.8-1.2-2C2149.6,971.2,2148.7,971.8,2148.5,972.7L2148.5,972.7z"/>
			<linearGradient id="SVGID_32_" gradientUnits="userSpaceOnUse" x1="2139.8315" y1="998.5102" x2="2145.574" y2="998.5102">
				<stop  offset="0" style="stop-color:#DAE3FE"/>
				<stop  offset="1" style="stop-color:#E9EFFD"/>
			</linearGradient>
			<path class="st36" d="M2142.2,994.7l-2.2,6.5l0,0c-0.3,0.9,0.2,1.9,1.1,2.3c0.9,0.3,1.9-0.2,2.3-1.1l0,0l2.2-6.6
				c0.3-0.9-0.2-1.9-1.1-2.2C2143.5,993.2,2142.5,993.7,2142.2,994.7L2142.2,994.7z"/>
			<linearGradient id="SVGID_33_" gradientUnits="userSpaceOnUse" x1="2131.2871" y1="1020.0629" x2="2137.7644" y2="1020.0629">
				<stop  offset="0" style="stop-color:#DAE3FE"/>
				<stop  offset="1" style="stop-color:#E9EFFD"/>
			</linearGradient>
			<path class="st37" d="M2134.2,1016.1l-2.7,6.3l0,0c-0.4,1,0,2.1,1,2.5c1,0.4,2.1,0,2.5-1l0,0l2.7-6.4c0.4-0.9-0.1-2-1-2.4
				C2135.7,1014.7,2134.6,1015.2,2134.2,1016.1L2134.2,1016.1z"/>
			<linearGradient id="SVGID_34_" gradientUnits="userSpaceOnUse" x1="2121.1565" y1="1040.9346" x2="2128.3411" y2="1040.9346">
				<stop  offset="0" style="stop-color:#DAE3FE"/>
				<stop  offset="1" style="stop-color:#E9EFFD"/>
			</linearGradient>
			<path class="st38" d="M2124.6,1036.9l-3.2,6.1l0,0c-0.5,1-0.1,2.2,0.9,2.7c1,0.5,2.2,0.1,2.7-0.9l0,0l3.2-6.2
				c0.5-1,0.1-2.2-0.9-2.7C2126.3,1035.6,2125.1,1035.9,2124.6,1036.9L2124.6,1036.9z"/>
			<linearGradient id="SVGID_35_" gradientUnits="userSpaceOnUse" x1="2109.5078" y1="1061.017" x2="2117.3809" y2="1061.017">
				<stop  offset="0" style="stop-color:#DAE3FE"/>
				<stop  offset="1" style="stop-color:#E9EFFD"/>
			</linearGradient>
			<path class="st39" d="M2113.5,1057l-3.6,5.8l0,0c-0.6,1-0.3,2.3,0.7,2.9c1,0.6,2.3,0.3,2.9-0.7l0,0l3.6-6c0.6-1,0.3-2.3-0.7-2.9
				C2115.4,1055.6,2114.1,1055.9,2113.5,1057L2113.5,1057z"/>
			<linearGradient id="SVGID_36_" gradientUnits="userSpaceOnUse" x1="2096.4084" y1="1080.204" x2="2104.9509" y2="1080.204">
				<stop  offset="0" style="stop-color:#DAE3FE"/>
				<stop  offset="1" style="stop-color:#E9EFFD"/>
			</linearGradient>
			<path class="st40" d="M2100.9,1076.1l-4,5.5l0,0c-0.7,1-0.5,2.4,0.5,3.1c1,0.7,2.4,0.5,3.1-0.5l0,0l4-5.7c0.7-1,0.5-2.4-0.5-3.1
				C2103,1074.8,2101.7,1075.1,2100.9,1076.1L2100.9,1076.1z"/>
			<linearGradient id="SVGID_37_" gradientUnits="userSpaceOnUse" x1="2081.9231" y1="1098.3854" x2="2091.116" y2="1098.3854">
				<stop  offset="0" style="stop-color:#DAE3FE"/>
				<stop  offset="1" style="stop-color:#E9EFFD"/>
			</linearGradient>
			<path class="st41" d="M2087,1094.2l-4.4,5.2l0,0c-0.8,1-0.7,2.5,0.3,3.3c1,0.8,2.5,0.7,3.3-0.3l0,0l4.5-5.4
				c0.8-1,0.7-2.5-0.3-3.3C2089.3,1093.1,2087.8,1093.2,2087,1094.2L2087,1094.2z"/>
			<linearGradient id="SVGID_38_" gradientUnits="userSpaceOnUse" x1="2066.1116" y1="1115.4492" x2="2075.9407" y2="1115.4492">
				<stop  offset="0" style="stop-color:#DAE3FE"/>
				<stop  offset="1" style="stop-color:#E9EFFD"/>
			</linearGradient>
			<path class="st42" d="M2071.7,1111.3l-4.8,4.9l0,0c-1,1-1,2.6,0,3.5c1,1,2.6,1,3.5,0l0,0l4.9-5c0.9-1,0.9-2.5-0.1-3.5
				C2074.2,1110.2,2072.7,1110.3,2071.7,1111.3L2071.7,1111.3z"/>
			<linearGradient id="SVGID_39_" gradientUnits="userSpaceOnUse" x1="2049.0466" y1="1131.2737" x2="2059.4824" y2="1131.2737">
				<stop  offset="0" style="stop-color:#DAE3FE"/>
				<stop  offset="1" style="stop-color:#E9EFFD"/>
			</linearGradient>
			<path class="st43" d="M2055.2,1127.1l-5.2,4.5l0,0c-1.1,0.9-1.2,2.6-0.3,3.7c0.9,1.1,2.6,1.2,3.7,0.3l0,0l5.2-4.6
				c1.1-0.9,1.2-2.6,0.2-3.6C2057.9,1126.2,2056.3,1126.1,2055.2,1127.1L2055.2,1127.1z"/>
			<linearGradient id="SVGID_40_" gradientUnits="userSpaceOnUse" x1="2030.8079" y1="1145.7225" x2="2041.8285" y2="1145.7225">
				<stop  offset="0" style="stop-color:#DAE3FE"/>
				<stop  offset="1" style="stop-color:#E9EFFD"/>
			</linearGradient>
			<path class="st44" d="M2037.5,1141.5l-5.5,4l-0.1,0c-1.2,0.9-1.5,2.6-0.6,3.8c0.9,1.2,2.6,1.5,3.8,0.6l0,0l5.6-4.2
				c1.2-0.9,1.4-2.6,0.5-3.8C2040.4,1140.8,2038.7,1140.6,2037.5,1141.5L2037.5,1141.5z"/>
			<linearGradient id="SVGID_41_" gradientUnits="userSpaceOnUse" x1="2011.5028" y1="1158.6592" x2="2023.0443" y2="1158.6592">
				<stop  offset="0" style="stop-color:#DAE3FE"/>
				<stop  offset="1" style="stop-color:#E9EFFD"/>
			</linearGradient>
			<path class="st45" d="M2018.7,1154.5l-5.8,3.6l-0.1,0c-1.3,0.8-1.7,2.5-0.9,3.9c0.8,1.3,2.5,1.7,3.9,0.9l0,0l5.9-3.7
				c1.3-0.8,1.7-2.5,0.9-3.8C2021.8,1154,2020.1,1153.6,2018.7,1154.5L2018.7,1154.5z"/>
			<linearGradient id="SVGID_42_" gradientUnits="userSpaceOnUse" x1="1991.2231" y1="1169.97" x2="2003.1835" y2="1169.97">
				<stop  offset="0" style="stop-color:#DAE3FE"/>
				<stop  offset="1" style="stop-color:#E9EFFD"/>
			</linearGradient>
			<path class="st46" d="M1999,1165.9l-6.1,3.1l-0.1,0c-1.4,0.7-2,2.4-1.3,3.9c0.7,1.4,2.4,2,3.9,1.3l0,0l6.2-3.2
				c1.4-0.7,2-2.4,1.2-3.8C2002.2,1165.7,2000.4,1165.1,1999,1165.9L1999,1165.9z"/>
			<linearGradient id="SVGID_43_" gradientUnits="userSpaceOnUse" x1="1970.0637" y1="1179.5076" x2="1982.4226" y2="1179.5076">
				<stop  offset="0" style="stop-color:#DAE3FE"/>
				<stop  offset="1" style="stop-color:#E9EFFD"/>
			</linearGradient>
			<path class="st47" d="M1978.3,1175.5l-6.4,2.5l-0.1,0c-1.5,0.6-2.2,2.3-1.6,3.8c0.6,1.5,2.3,2.2,3.8,1.6l0,0l6.5-2.6
				c1.5-0.6,2.2-2.3,1.6-3.8C1981.6,1175.6,1979.9,1174.9,1978.3,1175.5L1978.3,1175.5z"/>
			<linearGradient id="SVGID_44_" gradientUnits="userSpaceOnUse" x1="1948.1987" y1="1187.2444" x2="1960.8743" y2="1187.2444">
				<stop  offset="0" style="stop-color:#DAE3FE"/>
				<stop  offset="1" style="stop-color:#E9EFFD"/>
			</linearGradient>
			<path class="st48" d="M1956.9,1183.4l-6.5,2l-0.1,0c-1.6,0.5-2.5,2.2-2,3.8c0.5,1.6,2.2,2.5,3.8,2l0,0l6.7-2.1
				c1.6-0.5,2.5-2.2,2-3.8C1960.2,1183.7,1958.6,1182.8,1956.9,1183.4L1956.9,1183.4z"/>
			<linearGradient id="SVGID_45_" gradientUnits="userSpaceOnUse" x1="1925.8148" y1="1193.243" x2="1938.7631" y2="1193.243">
				<stop  offset="0" style="stop-color:#DAE3FE"/>
				<stop  offset="1" style="stop-color:#E9EFFD"/>
			</linearGradient>
			<path class="st49" d="M1935,1189.5l-6.7,1.5l-0.1,0c-1.7,0.4-2.7,2-2.3,3.7c0.4,1.7,2,2.7,3.7,2.3l0,0l6.8-1.6
				c1.6-0.4,2.7-2,2.3-3.7C1938.3,1190.1,1936.7,1189.1,1935,1189.5L1935,1189.5z"/>
			<linearGradient id="SVGID_46_" gradientUnits="userSpaceOnUse" x1="1903.062" y1="1197.5283" x2="1916.2383" y2="1197.5283">
				<stop  offset="0" style="stop-color:#DAE3FE"/>
				<stop  offset="1" style="stop-color:#E9EFFD"/>
			</linearGradient>
			<path class="st50" d="M1912.6,1193.9l-6.8,1l-0.1,0c-1.7,0.3-2.9,1.9-2.7,3.6c0.3,1.7,1.9,2.9,3.6,2.7l0,0l6.9-1.1
				c1.7-0.3,2.9-1.9,2.6-3.6C1915.9,1194.8,1914.4,1193.7,1912.6,1193.9L1912.6,1193.9z"/>
			<linearGradient id="SVGID_47_" gradientUnits="userSpaceOnUse" x1="1880.0771" y1="1200.1483" x2="1893.441" y2="1200.1483">
				<stop  offset="0" style="stop-color:#DAE3FE"/>
				<stop  offset="1" style="stop-color:#E9EFFD"/>
			</linearGradient>
			<path class="st51" d="M1889.9,1196.7l-6.8,0.5l-0.1,0c-1.8,0.1-3.1,1.7-3,3.4c0.1,1.8,1.7,3.1,3.4,3l0,0l7-0.6
				c1.8-0.1,3.1-1.7,2.9-3.4C1893.3,1197.9,1891.8,1196.5,1889.9,1196.7L1889.9,1196.7z"/>
			<linearGradient id="SVGID_48_" gradientUnits="userSpaceOnUse" x1="1856.9822" y1="1201.1708" x2="1870.4982" y2="1201.1708">
				<stop  offset="0" style="stop-color:#DAE3FE"/>
				<stop  offset="1" style="stop-color:#E9EFFD"/>
			</linearGradient>
			<path class="st52" d="M1867.1,1197.9l-6.8,0.1h-0.1c-1.8,0-3.3,1.5-3.3,3.3c0,1.8,1.5,3.3,3.3,3.3h0l7-0.1c1.8,0,3.2-1.5,3.2-3.3
				C1870.5,1199.3,1869,1197.9,1867.1,1197.9L1867.1,1197.9z"/>
			<linearGradient id="SVGID_49_" gradientUnits="userSpaceOnUse" x1="1833.8833" y1="1200.6527" x2="1847.5211" y2="1200.6527">
				<stop  offset="0" style="stop-color:#DAE3FE"/>
				<stop  offset="1" style="stop-color:#E9EFFD"/>
			</linearGradient>
			<path class="st53" d="M1844.3,1197.5l-6.8-0.4l-0.1,0c-1.8-0.1-3.4,1.3-3.5,3.2c-0.1,1.8,1.3,3.4,3.2,3.5l0,0l7,0.4
				c1.8,0.1,3.4-1.3,3.5-3.2C1847.6,1199.2,1846.2,1197.6,1844.3,1197.5L1844.3,1197.5z"/>
			<linearGradient id="SVGID_50_" gradientUnits="userSpaceOnUse" x1="1810.8719" y1="1198.7167" x2="1824.6061" y2="1198.7167">
				<stop  offset="0" style="stop-color:#DAE3FE"/>
				<stop  offset="1" style="stop-color:#E9EFFD"/>
			</linearGradient>
			<path class="st54" d="M1821.6,1195.7l-6.8-0.8l-0.1,0c-1.9-0.2-3.6,1.1-3.8,3c-0.2,1.9,1.1,3.6,3,3.8l0,0l6.9,0.8
				c1.9,0.2,3.5-1.1,3.7-3C1824.8,1197.6,1823.5,1196,1821.6,1195.7L1821.6,1195.7z"/>
			<linearGradient id="SVGID_51_" gradientUnits="userSpaceOnUse" x1="1788.025" y1="1195.4241" x2="1801.8337" y2="1195.4241">
				<stop  offset="0" style="stop-color:#DAE3FE"/>
				<stop  offset="1" style="stop-color:#E9EFFD"/>
			</linearGradient>
			<path class="st55" d="M1798.9,1192.6l-6.8-1.2l-0.1,0c-1.9-0.3-3.7,0.9-4,2.8c-0.3,1.9,0.9,3.7,2.8,4l0,0l6.9,1.2
				c1.9,0.3,3.7-0.9,4-2.8C1802.1,1194.7,1800.8,1193,1798.9,1192.6L1798.9,1192.6z"/>
			<linearGradient id="SVGID_52_" gradientUnits="userSpaceOnUse" x1="1765.416" y1="1190.8552" x2="1779.2727" y2="1190.8552">
				<stop  offset="0" style="stop-color:#DAE3FE"/>
				<stop  offset="1" style="stop-color:#E9EFFD"/>
			</linearGradient>
			<path class="st56" d="M1776.5,1188.2l-6.7-1.6l-0.1,0c-1.9-0.4-3.8,0.7-4.3,2.6c-0.4,1.9,0.7,3.8,2.6,4.3l0,0l6.8,1.5
				c1.9,0.4,3.8-0.8,4.2-2.7C1779.6,1190.5,1778.4,1188.7,1776.5,1188.2L1776.5,1188.2z"/>
			<linearGradient id="SVGID_53_" gradientUnits="userSpaceOnUse" x1="1743.0752" y1="1185.0796" x2="1756.9889" y2="1185.0796">
				<stop  offset="0" style="stop-color:#DAE3FE"/>
				<stop  offset="1" style="stop-color:#E9EFFD"/>
			</linearGradient>
			<path class="st57" d="M1754.3,1182.6l-6.6-1.9l-0.1,0c-1.9-0.6-3.9,0.5-4.5,2.5c-0.6,1.9,0.5,3.9,2.5,4.5l0,0l6.7,1.9
				c1.9,0.5,3.9-0.6,4.4-2.5C1757.4,1185.1,1756.3,1183.2,1754.3,1182.6L1754.3,1182.6z"/>
			<linearGradient id="SVGID_54_" gradientUnits="userSpaceOnUse" x1="1721.076" y1="1178.1642" x2="1735.0084" y2="1178.1642">
				<stop  offset="0" style="stop-color:#DAE3FE"/>
				<stop  offset="1" style="stop-color:#E9EFFD"/>
			</linearGradient>
			<path class="st58" d="M1732.5,1175.8l-6.5-2.2l-0.1,0c-1.9-0.7-4,0.4-4.7,2.3c-0.7,1.9,0.4,4,2.3,4.7l0,0l6.6,2.2
				c1.9,0.6,4-0.4,4.6-2.3C1735.5,1178.6,1734.4,1176.5,1732.5,1175.8L1732.5,1175.8z"/>
			<linearGradient id="SVGID_55_" gradientUnits="userSpaceOnUse" x1="1699.4529" y1="1170.1678" x2="1713.3998" y2="1170.1678">
				<stop  offset="0" style="stop-color:#DAE3FE"/>
				<stop  offset="1" style="stop-color:#E9EFFD"/>
			</linearGradient>
			<path class="st59" d="M1711,1168l-6.4-2.6l0,0c-1.9-0.8-4.1,0.2-4.9,2.1c-0.8,1.9,0.2,4.1,2.1,4.9l0,0l6.5,2.6
				c1.9,0.8,4.1-0.2,4.8-2.1C1713.9,1170.9,1713,1168.8,1711,1168L1711,1168z"/>
			<linearGradient id="SVGID_56_" gradientUnits="userSpaceOnUse" x1="1678.2458" y1="1161.139" x2="1692.1957" y2="1161.139">
				<stop  offset="0" style="stop-color:#DAE3FE"/>
				<stop  offset="1" style="stop-color:#E9EFFD"/>
			</linearGradient>
			<path class="st60" d="M1689.9,1159.1l-6.2-2.9l0,0c-1.9-0.9-4.2,0-5.1,1.9c-0.9,1.9,0,4.2,1.9,5.1l0,0l6.4,2.9
				c1.9,0.9,4.2,0,5-1.9C1692.7,1162.2,1691.9,1160,1689.9,1159.1L1689.9,1159.1z"/>
			<linearGradient id="SVGID_57_" gradientUnits="userSpaceOnUse" x1="1657.4862" y1="1151.1167" x2="1671.4358" y2="1151.1167">
				<stop  offset="0" style="stop-color:#DAE3FE"/>
				<stop  offset="1" style="stop-color:#E9EFFD"/>
			</linearGradient>
			<path class="st61" d="M1669.3,1149.3l-6.1-3.1l0,0c-1.9-1-4.2-0.2-5.2,1.7c-1,1.9-0.2,4.2,1.7,5.2l0,0l6.2,3.2
				c1.9,1,4.2,0.2,5.2-1.7C1672,1152.6,1671.2,1150.3,1669.3,1149.3L1669.3,1149.3z"/>
			<linearGradient id="SVGID_58_" gradientUnits="userSpaceOnUse" x1="1637.2815" y1="1140.1572" x2="1651.1285" y2="1140.1572">
				<stop  offset="0" style="stop-color:#DAE3FE"/>
				<stop  offset="1" style="stop-color:#E9EFFD"/>
			</linearGradient>
			<path class="st62" d="M1649.1,1138.5l-6-3.4l0,0c-1.9-1.1-4.3-0.4-5.3,1.5c-1.1,1.9-0.4,4.3,1.5,5.3l0,0l6,3.4
				c1.9,1.1,4.3,0.4,5.3-1.5C1651.7,1141.9,1651,1139.6,1649.1,1138.5L1649.1,1138.5z"/>
			<linearGradient id="SVGID_59_" gradientUnits="userSpaceOnUse" x1="1617.5297" y1="1128.3623" x2="1631.2863" y2="1128.3623">
				<stop  offset="0" style="stop-color:#DAE3FE"/>
				<stop  offset="1" style="stop-color:#E9EFFD"/>
			</linearGradient>
			<path class="st63" d="M1629.4,1126.9l-5.8-3.6l0,0c-1.8-1.1-4.3-0.6-5.4,1.3c-1.1,1.8-0.6,4.3,1.3,5.4l0,0l5.9,3.7
				c1.8,1.1,4.3,0.6,5.4-1.3C1631.8,1130.4,1631.3,1128,1629.4,1126.9L1629.4,1126.9z"/>
			<linearGradient id="SVGID_60_" gradientUnits="userSpaceOnUse" x1="1598.2358" y1="1115.8289" x2="1611.8962" y2="1115.8289">
				<stop  offset="0" style="stop-color:#DAE3FE"/>
				<stop  offset="1" style="stop-color:#E9EFFD"/>
			</linearGradient>
			<path class="st64" d="M1610.1,1114.5l-5.7-3.8l0,0c-1.8-1.2-4.3-0.7-5.5,1.1c-1.2,1.8-0.7,4.3,1.1,5.5l0,0l5.8,3.9
				c1.8,1.2,4.3,0.7,5.5-1.1C1612.4,1118.2,1612,1115.7,1610.1,1114.5L1610.1,1114.5z"/>
			<linearGradient id="SVGID_61_" gradientUnits="userSpaceOnUse" x1="1579.3918" y1="1102.6252" x2="1592.9591" y2="1102.6252">
				<stop  offset="0" style="stop-color:#DAE3FE"/>
				<stop  offset="1" style="stop-color:#E9EFFD"/>
			</linearGradient>
			<path class="st65" d="M1591.3,1101.4l-5.6-4l0,0c-1.8-1.3-4.3-0.9-5.5,0.9c-1.3,1.8-0.9,4.3,0.9,5.5l0,0l5.6,4.1
				c1.8,1.3,4.3,0.9,5.5-0.9C1593.5,1105.2,1593.1,1102.7,1591.3,1101.4L1591.3,1101.4z"/>
			<linearGradient id="SVGID_62_" gradientUnits="userSpaceOnUse" x1="1560.9827" y1="1088.8158" x2="1574.4619" y2="1088.8158">
				<stop  offset="0" style="stop-color:#DAE3FE"/>
				<stop  offset="1" style="stop-color:#E9EFFD"/>
			</linearGradient>
			<path class="st66" d="M1572.9,1087.8l-5.4-4.2l0,0c-1.7-1.3-4.3-1-5.6,0.7c-1.3,1.7-1,4.3,0.7,5.6l0,0l5.5,4.2
				c1.7,1.3,4.2,1,5.6-0.7C1575,1091.6,1574.7,1089.1,1572.9,1087.8L1572.9,1087.8z"/>
			<linearGradient id="SVGID_63_" gradientUnits="userSpaceOnUse" x1="1542.9874" y1="1074.4655" x2="1556.386" y2="1074.4655">
				<stop  offset="0" style="stop-color:#DAE3FE"/>
				<stop  offset="1" style="stop-color:#E9EFFD"/>
			</linearGradient>
			<path class="st67" d="M1554.9,1073.5l-5.3-4.4l0,0c-1.7-1.4-4.2-1.2-5.7,0.6c-1.4,1.7-1.2,4.2,0.6,5.7l0,0l5.4,4.4
				c1.7,1.4,4.2,1.1,5.6-0.6S1556.6,1075,1554.9,1073.5L1554.9,1073.5z"/>
			<linearGradient id="SVGID_64_" gradientUnits="userSpaceOnUse" x1="1525.3805" y1="1059.6348" x2="1538.7065" y2="1059.6348">
				<stop  offset="0" style="stop-color:#DAE3FE"/>
				<stop  offset="1" style="stop-color:#E9EFFD"/>
			</linearGradient>
			<path class="st68" d="M1537.3,1058.8l-5.2-4.5l0,0c-1.7-1.5-4.2-1.3-5.7,0.4c-1.5,1.7-1.3,4.2,0.4,5.7l0,0l5.3,4.5
				c1.7,1.5,4.2,1.3,5.7-0.4C1539.2,1062.8,1539,1060.3,1537.3,1058.8L1537.3,1058.8z"/>
			<linearGradient id="SVGID_65_" gradientUnits="userSpaceOnUse" x1="1508.1323" y1="1044.3817" x2="1521.3951" y2="1044.3817">
				<stop  offset="0" style="stop-color:#DAE3FE"/>
				<stop  offset="1" style="stop-color:#E9EFFD"/>
			</linearGradient>
			<path class="st69" d="M1520,1043.7l-5.1-4.6l0,0c-1.7-1.5-4.2-1.4-5.7,0.3c-1.5,1.7-1.4,4.2,0.3,5.7l0,0l5.2,4.6
				c1.7,1.5,4.2,1.4,5.7-0.3C1521.9,1047.8,1521.7,1045.2,1520,1043.7L1520,1043.7z"/>
			<linearGradient id="SVGID_66_" gradientUnits="userSpaceOnUse" x1="1491.215" y1="1028.7633" x2="1504.4202" y2="1028.7633">
				<stop  offset="0" style="stop-color:#DAE3FE"/>
				<stop  offset="1" style="stop-color:#E9EFFD"/>
			</linearGradient>
			<path class="st70" d="M1503.1,1028.2l-5-4.7l0,0c-1.6-1.5-4.2-1.5-5.8,0.2c-1.5,1.6-1.5,4.2,0.2,5.8l0,0l5.1,4.7
				c1.6,1.5,4.2,1.5,5.8-0.2C1504.9,1032.3,1504.8,1029.7,1503.1,1028.2L1503.1,1028.2z"/>
			<linearGradient id="SVGID_67_" gradientUnits="userSpaceOnUse" x1="1474.588" y1="1012.8333" x2="1487.7565" y2="1012.8333">
				<stop  offset="0" style="stop-color:#DAE3FE"/>
				<stop  offset="1" style="stop-color:#E9EFFD"/>
			</linearGradient>
			<path class="st71" d="M1486.5,1012.3l-4.9-4.8l0,0c-1.6-1.6-4.2-1.5-5.8,0.1c-1.6,1.6-1.5,4.2,0.1,5.8l0,0l5,4.8
				c1.6,1.6,4.2,1.5,5.8-0.1C1488.2,1016.5,1488.1,1013.9,1486.5,1012.3L1486.5,1012.3z"/>
			<linearGradient id="SVGID_68_" gradientUnits="userSpaceOnUse" x1="1458.2017" y1="996.6219" x2="1471.343" y2="996.6219">
				<stop  offset="0" style="stop-color:#DAE3FE"/>
				<stop  offset="1" style="stop-color:#E9EFFD"/>
			</linearGradient>
			<path class="st72" d="M1470.1,996.2l-4.9-4.9l0,0c-1.6-1.6-4.2-1.6-5.8,0c-1.6,1.6-1.6,4.2,0,5.8l0,0l4.9,4.9
				c1.6,1.6,4.2,1.6,5.8,0C1471.7,1000.4,1471.7,997.8,1470.1,996.2L1470.1,996.2z"/>
			<linearGradient id="SVGID_69_" gradientUnits="userSpaceOnUse" x1="1442.0347" y1="980.1909" x2="1455.1594" y2="980.1909">
				<stop  offset="0" style="stop-color:#DAE3FE"/>
				<stop  offset="1" style="stop-color:#E9EFFD"/>
			</linearGradient>
			<path class="st73" d="M1454,979.8l-4.8-5l0,0c-1.6-1.6-4.2-1.7-5.9-0.1c-1.6,1.6-1.7,4.2-0.1,5.9l0,0l4.8,5
				c1.6,1.6,4.2,1.7,5.9,0.1C1455.5,984,1455.6,981.4,1454,979.8L1454,979.8z"/>
			<linearGradient id="SVGID_70_" gradientUnits="userSpaceOnUse" x1="1426.0447" y1="963.5807" x2="1439.1613" y2="963.5807">
				<stop  offset="0" style="stop-color:#DAE3FE"/>
				<stop  offset="1" style="stop-color:#E9EFFD"/>
			</linearGradient>
			<path class="st74" d="M1438,963.2l-4.8-5c-1.6-1.7-4.2-1.7-5.9-0.2c-1.7,1.6-1.7,4.2-0.2,5.9l0,0l4.8,5c1.6,1.7,4.2,1.7,5.9,0.1
				C1439.5,967.5,1439.6,964.9,1438,963.2z"/>
			<linearGradient id="SVGID_71_" gradientUnits="userSpaceOnUse" x1="1410.1932" y1="946.8342" x2="1423.3143" y2="946.8342">
				<stop  offset="0" style="stop-color:#DAE3FE"/>
				<stop  offset="1" style="stop-color:#E9EFFD"/>
			</linearGradient>
			<path class="st75" d="M1422.2,946.5l-4.7-5c-1.6-1.7-4.2-1.8-5.9-0.2c-1.7,1.6-1.8,4.2-0.2,5.9l0,0l4.8,5
				c1.6,1.7,4.2,1.8,5.9,0.2C1423.7,950.8,1423.8,948.2,1422.2,946.5z"/>
			<linearGradient id="SVGID_72_" gradientUnits="userSpaceOnUse" x1="1394.4375" y1="929.9902" x2="1407.573" y2="929.9902">
				<stop  offset="0" style="stop-color:#DAE3FE"/>
				<stop  offset="1" style="stop-color:#E9EFFD"/>
			</linearGradient>
			<path class="st76" d="M1406.4,929.7l-4.7-5.1c-1.6-1.7-4.2-1.8-6-0.2c-1.7,1.6-1.8,4.2-0.2,6l0,0l4.7,5.1
				c1.6,1.7,4.2,1.8,5.9,0.2C1407.9,934,1408,931.4,1406.4,929.7z"/>
			<linearGradient id="SVGID_73_" gradientUnits="userSpaceOnUse" x1="1378.7251" y1="913.0915" x2="1391.8995" y2="913.0915">
				<stop  offset="0" style="stop-color:#DAE3FE"/>
				<stop  offset="1" style="stop-color:#E9EFFD"/>
			</linearGradient>
			<path class="st77" d="M1390.8,912.8l-4.7-5.1c-1.6-1.7-4.3-1.8-6-0.2c-1.7,1.6-1.8,4.3-0.2,6l0,0l4.7,5.1c1.6,1.7,4.3,1.8,6,0.2
				C1392.3,917.1,1392.4,914.5,1390.8,912.8z"/>
			<linearGradient id="SVGID_74_" gradientUnits="userSpaceOnUse" x1="1363.0225" y1="896.1915" x2="1376.2402" y2="896.1915">
				<stop  offset="0" style="stop-color:#DAE3FE"/>
				<stop  offset="1" style="stop-color:#E9EFFD"/>
			</linearGradient>
			<path class="st78" d="M1375.1,895.8l-4.7-5.1c-1.6-1.7-4.3-1.8-6-0.2c-1.7,1.6-1.8,4.3-0.2,6l0,0l4.7,5.1c1.6,1.7,4.3,1.8,6,0.2
				C1376.6,900.2,1376.7,897.6,1375.1,895.8z"/>
			<linearGradient id="SVGID_75_" gradientUnits="userSpaceOnUse" x1="1347.2766" y1="879.3291" x2="1360.5568" y2="879.3291">
				<stop  offset="0" style="stop-color:#DAE3FE"/>
				<stop  offset="1" style="stop-color:#E9EFFD"/>
			</linearGradient>
			<path class="st79" d="M1359.4,878.9l-4.7-5.1c-1.6-1.7-4.3-1.8-6-0.2c-1.7,1.6-1.8,4.3-0.2,6l0,0l4.7,5c1.6,1.7,4.3,1.8,6,0.2
				C1360.9,883.4,1361,880.7,1359.4,878.9z"/>
			<linearGradient id="SVGID_76_" gradientUnits="userSpaceOnUse" x1="1331.4446" y1="862.5413" x2="1344.8003" y2="862.5413">
				<stop  offset="0" style="stop-color:#DAE3FE"/>
				<stop  offset="1" style="stop-color:#E9EFFD"/>
			</linearGradient>
			<path class="st80" d="M1343.6,862.1l-4.8-5c-1.6-1.7-4.4-1.8-6.1-0.2c-1.7,1.6-1.8,4.4-0.2,6.1l0,0l4.8,5
				c1.6,1.7,4.3,1.8,6.1,0.2C1345.2,866.6,1345.3,863.8,1343.6,862.1z"/>
			<linearGradient id="SVGID_77_" gradientUnits="userSpaceOnUse" x1="1315.4844" y1="845.8688" x2="1328.9327" y2="845.8688">
				<stop  offset="0" style="stop-color:#DAE3FE"/>
				<stop  offset="1" style="stop-color:#E9EFFD"/>
			</linearGradient>
			<path class="st81" d="M1327.7,845.4l-4.8-5c-1.7-1.7-4.4-1.8-6.1-0.1c-1.7,1.7-1.8,4.4-0.1,6.1l0,0l0,0l4.8,5l0,0
				c1.7,1.7,4.4,1.8,6.1,0.1C1329.3,849.8,1329.4,847.1,1327.7,845.4z"/>
			<linearGradient id="SVGID_78_" gradientUnits="userSpaceOnUse" x1="1299.354" y1="829.3546" x2="1312.9042" y2="829.3546">
				<stop  offset="0" style="stop-color:#DAE3FE"/>
				<stop  offset="1" style="stop-color:#E9EFFD"/>
			</linearGradient>
			<path class="st82" d="M1311.7,828.8l-4.9-4.9c-1.7-1.7-4.4-1.7-6.1-0.1s-1.7,4.4-0.1,6.1l0,0l0,0l4.8,4.9l0,0
				c1.7,1.7,4.4,1.7,6.1,0C1313.3,833.2,1313.3,830.5,1311.7,828.8z"/>
			<linearGradient id="SVGID_79_" gradientUnits="userSpaceOnUse" x1="1283.0127" y1="813.0425" x2="1296.677" y2="813.0425">
				<stop  offset="0" style="stop-color:#DAE3FE"/>
				<stop  offset="1" style="stop-color:#E9EFFD"/>
			</linearGradient>
			<path class="st83" d="M1295.4,812.4l-4.9-4.9c-1.7-1.7-4.5-1.7-6.2,0c-1.7,1.7-1.7,4.5,0,6.2l0,0l0,0l4.9,4.8l0,0
				c1.7,1.7,4.5,1.7,6.2,0C1297.1,816.8,1297.1,814.1,1295.4,812.4z"/>
			<linearGradient id="SVGID_80_" gradientUnits="userSpaceOnUse" x1="1266.4207" y1="796.9782" x2="1280.2111" y2="796.9782">
				<stop  offset="0" style="stop-color:#DAE3FE"/>
				<stop  offset="1" style="stop-color:#E9EFFD"/>
			</linearGradient>
			<path class="st84" d="M1278.9,796.2l-5-4.8c-1.8-1.7-4.5-1.6-6.2,0.1c-1.7,1.8-1.6,4.5,0.1,6.2l0,0l0,0l5,4.8l0,0
				c1.8,1.7,4.5,1.6,6.2-0.1C1280.7,800.7,1280.6,797.9,1278.9,796.2z"/>
			<linearGradient id="SVGID_81_" gradientUnits="userSpaceOnUse" x1="1249.5742" y1="781.2181" x2="1263.4467" y2="781.2181">
				<stop  offset="0" style="stop-color:#DAE3FE"/>
				<stop  offset="1" style="stop-color:#E9EFFD"/>
			</linearGradient>
			<path class="st85" d="M1262,780.3l-5.1-4.7c-1.8-1.6-4.5-1.5-6.2,0.3c-1.6,1.8-1.5,4.5,0.3,6.2l0,0l5.1,4.7l0,0
				c1.8,1.6,4.6,1.5,6.2-0.3C1263.9,784.8,1263.8,782,1262,780.3L1262,780.3z"/>
			<linearGradient id="SVGID_82_" gradientUnits="userSpaceOnUse" x1="1232.406" y1="765.7938" x2="1246.3439" y2="765.7938">
				<stop  offset="0" style="stop-color:#DAE3FE"/>
				<stop  offset="1" style="stop-color:#E9EFFD"/>
			</linearGradient>
			<path class="st86" d="M1244.9,764.8l-5.2-4.6c-1.8-1.6-4.6-1.4-6.2,0.4c-1.6,1.8-1.4,4.6,0.4,6.2l0,0l5.2,4.6l0,0
				c1.8,1.6,4.6,1.4,6.2-0.4C1246.8,769.2,1246.7,766.4,1244.9,764.8L1244.9,764.8z"/>
			<linearGradient id="SVGID_83_" gradientUnits="userSpaceOnUse" x1="1214.8849" y1="750.7752" x2="1228.8986" y2="750.7752">
				<stop  offset="0" style="stop-color:#DAE3FE"/>
				<stop  offset="1" style="stop-color:#E9EFFD"/>
			</linearGradient>
			<path class="st87" d="M1227.3,749.7l-5.3-4.5c-1.8-1.5-4.6-1.3-6.1,0.5c-1.5,1.8-1.3,4.6,0.5,6.1l0,0l5.3,4.4l0,0
				c1.8,1.5,4.6,1.3,6.1-0.5C1229.4,754,1229.2,751.2,1227.3,749.7L1227.3,749.7z"/>
			<linearGradient id="SVGID_84_" gradientUnits="userSpaceOnUse" x1="1196.9877" y1="736.2241" x2="1211.0869" y2="736.2241">
				<stop  offset="0" style="stop-color:#DAE3FE"/>
				<stop  offset="1" style="stop-color:#E9EFFD"/>
			</linearGradient>
			<path class="st88" d="M1209.4,735l-5.4-4.3c-1.9-1.5-4.6-1.2-6.1,0.7c-1.5,1.9-1.2,4.6,0.7,6.1l0,0l5.4,4.3l0,0
				c1.9,1.5,4.6,1.2,6.1-0.7C1211.6,739.2,1211.3,736.5,1209.4,735L1209.4,735z"/>
			<linearGradient id="SVGID_85_" gradientUnits="userSpaceOnUse" x1="1178.6711" y1="722.1832" x2="1192.8649" y2="722.1832">
				<stop  offset="0" style="stop-color:#DAE3FE"/>
				<stop  offset="1" style="stop-color:#E9EFFD"/>
			</linearGradient>
			<path class="st89" d="M1191.1,720.8l-5.6-4.1c-1.9-1.4-4.6-1-6,0.9c-1.4,1.9-1,4.6,0.9,6l0,0l5.5,4.1l0,0c1.9,1.4,4.6,1,6-0.9
				C1193.4,724.9,1193,722.2,1191.1,720.8L1191.1,720.8z"/>
			<linearGradient id="SVGID_86_" gradientUnits="userSpaceOnUse" x1="1159.9202" y1="708.7191" x2="1174.2175" y2="708.7191">
				<stop  offset="0" style="stop-color:#DAE3FE"/>
				<stop  offset="1" style="stop-color:#E9EFFD"/>
			</linearGradient>
			<path class="st90" d="M1172.4,707.2l-5.7-4c-1.9-1.4-4.6-0.9-6,1.1c-1.4,1.9-0.9,4.6,1.1,6l0,0l5.6,3.9l0,0
				c1.9,1.4,4.6,0.9,6-1.1C1174.8,711.2,1174.3,708.5,1172.4,707.2L1172.4,707.2z"/>
			<linearGradient id="SVGID_87_" gradientUnits="userSpaceOnUse" x1="1140.7163" y1="695.8906" x2="1155.1265" y2="695.8906">
				<stop  offset="0" style="stop-color:#DAE3FE"/>
				<stop  offset="1" style="stop-color:#E9EFFD"/>
			</linearGradient>
			<path class="st91" d="M1153.2,694.2l-5.9-3.8c-2-1.3-4.6-0.7-5.9,1.3c-1.3,2-0.7,4.6,1.3,5.9l0,0l5.8,3.7l0,0
				c2,1.3,4.6,0.7,5.9-1.3C1155.7,698.1,1155.2,695.5,1153.2,694.2L1153.2,694.2z"/>
			<linearGradient id="SVGID_88_" gradientUnits="userSpaceOnUse" x1="1121.0592" y1="683.7665" x2="1135.5697" y2="683.7665">
				<stop  offset="0" style="stop-color:#DAE3FE"/>
				<stop  offset="1" style="stop-color:#E9EFFD"/>
			</linearGradient>
			<path class="st92" d="M1133.5,681.9l-6-3.5c-2-1.2-4.6-0.5-5.8,1.5c-1.2,2-0.5,4.6,1.5,5.8l0,0l5.9,3.5l0,0
				c2,1.2,4.6,0.5,5.8-1.5C1136.2,685.7,1135.5,683.1,1133.5,681.9L1133.5,681.9z"/>
			<linearGradient id="SVGID_89_" gradientUnits="userSpaceOnUse" x1="1100.9769" y1="672.3777" x2="1115.5787" y2="672.3777">
				<stop  offset="0" style="stop-color:#DAE3FE"/>
				<stop  offset="1" style="stop-color:#E9EFFD"/>
			</linearGradient>
			<path class="st93" d="M1113.4,670.3l-6.1-3.3c-2.1-1.1-4.6-0.4-5.8,1.7c-1.1,2.1-0.4,4.6,1.7,5.8l0,0l6,3.3l0,0
				c2.1,1.1,4.6,0.4,5.8-1.7C1116.2,674,1115.4,671.4,1113.4,670.3L1113.4,670.3z"/>
			<linearGradient id="SVGID_90_" gradientUnits="userSpaceOnUse" x1="1080.4983" y1="661.7304" x2="1095.1827" y2="661.7304">
				<stop  offset="0" style="stop-color:#DAE3FE"/>
				<stop  offset="1" style="stop-color:#E9EFFD"/>
			</linearGradient>
			<path class="st94" d="M1092.8,659.5l-6.2-3.1c-2.1-1-4.6-0.2-5.7,1.9c-1,2.1-0.2,4.6,1.9,5.7l0,0l6.1,3.1l0,0
				c2.1,1,4.6,0.2,5.7-1.9C1095.8,663.1,1094.9,660.5,1092.8,659.5L1092.8,659.5z"/>
			<linearGradient id="SVGID_91_" gradientUnits="userSpaceOnUse" x1="1059.6521" y1="651.8307" x2="1074.4106" y2="651.8307">
				<stop  offset="0" style="stop-color:#DAE3FE"/>
				<stop  offset="1" style="stop-color:#E9EFFD"/>
			</linearGradient>
			<path class="st95" d="M1071.9,649.4l-6.3-2.9c-2.1-1-4.6,0-5.6,2.1c-1,2.1,0,4.6,2.1,5.6l0,0l6.3,2.8l0,0c2.1,1,4.6,0,5.6-2.1
				C1075,652.9,1074.1,650.4,1071.9,649.4L1071.9,649.4z"/>
			<linearGradient id="SVGID_92_" gradientUnits="userSpaceOnUse" x1="1038.467" y1="642.6857" x2="1053.291" y2="642.6857">
				<stop  offset="0" style="stop-color:#DAE3FE"/>
				<stop  offset="1" style="stop-color:#E9EFFD"/>
			</linearGradient>
			<path class="st96" d="M1050.7,640.1l-6.4-2.6c-2.1-0.9-4.6,0.1-5.5,2.3c-0.9,2.1,0.1,4.6,2.3,5.5l0,0l6.4,2.6l0,0
				c2.1,0.9,4.6-0.1,5.5-2.3C1053.9,643.5,1052.8,641,1050.7,640.1L1050.7,640.1z"/>
			<linearGradient id="SVGID_93_" gradientUnits="userSpaceOnUse" x1="1016.9719" y1="634.3005" x2="1031.8524" y2="634.3005">
				<stop  offset="0" style="stop-color:#DAE3FE"/>
				<stop  offset="1" style="stop-color:#E9EFFD"/>
			</linearGradient>
			<path class="st97" d="M1029.1,631.6l-6.5-2.4c-2.2-0.8-4.6,0.3-5.4,2.5c-0.8,2.2,0.3,4.6,2.5,5.4l0,0l6.4,2.4l0,0
				c2.2,0.8,4.6-0.3,5.4-2.5C1032.4,634.8,1031.3,632.4,1029.1,631.6L1029.1,631.6z"/>
			<linearGradient id="SVGID_94_" gradientUnits="userSpaceOnUse" x1="995.1943" y1="626.6818" x2="1010.1235" y2="626.6818">
				<stop  offset="0" style="stop-color:#DAE3FE"/>
				<stop  offset="1" style="stop-color:#E9EFFD"/>
			</linearGradient>
			<path class="st98" d="M1007.3,623.8l-6.6-2.2c-2.2-0.7-4.5,0.5-5.2,2.6c-0.7,2.2,0.5,4.5,2.6,5.2l0,0l6.5,2.2l0,0
				c2.2,0.7,4.5-0.5,5.3-2.6C1010.6,626.9,1009.5,624.5,1007.3,623.8L1007.3,623.8z"/>
			<linearGradient id="SVGID_95_" gradientUnits="userSpaceOnUse" x1="973.1619" y1="619.8346" x2="988.1305" y2="619.8346">
				<stop  offset="0" style="stop-color:#DAE3FE"/>
				<stop  offset="1" style="stop-color:#E9EFFD"/>
			</linearGradient>
			<path class="st99" d="M985.1,616.8l-6.7-1.9c-2.2-0.6-4.5,0.6-5.1,2.8c-0.6,2.2,0.6,4.5,2.8,5.1l0,0l6.6,1.9l0,0
				c2.2,0.6,4.5-0.6,5.1-2.8C988.6,619.8,987.3,617.5,985.1,616.8L985.1,616.8z"/>
			<linearGradient id="SVGID_96_" gradientUnits="userSpaceOnUse" x1="950.9052" y1="613.7669" x2="965.9044" y2="613.7669">
				<stop  offset="0" style="stop-color:#DAE3FE"/>
				<stop  offset="1" style="stop-color:#E9EFFD"/>
			</linearGradient>
			<path class="st100" d="M962.8,610.6l-6.7-1.7c-2.2-0.6-4.4,0.8-5,3c-0.6,2.2,0.8,4.5,3,5l0,0l6.7,1.7l0,0c2.2,0.6,4.5-0.8,5-3
				C966.3,613.4,965,611.2,962.8,610.6L962.8,610.6z"/>
			<linearGradient id="SVGID_97_" gradientUnits="userSpaceOnUse" x1="928.4523" y1="608.4838" x2="943.4736" y2="608.4838">
				<stop  offset="0" style="stop-color:#DAE3FE"/>
				<stop  offset="1" style="stop-color:#E9EFFD"/>
			</linearGradient>
			<path class="st101" d="M940.2,605.2l-6.8-1.5c-2.2-0.5-4.4,0.9-4.9,3.1c-0.5,2.2,0.9,4.4,3.1,4.9l0,0l6.7,1.5l0,0
				c2.2,0.5,4.4-0.9,4.9-3.1C943.9,607.9,942.5,605.7,940.2,605.2L940.2,605.2z"/>
			<linearGradient id="SVGID_98_" gradientUnits="userSpaceOnUse" x1="905.832" y1="603.9925" x2="920.8667" y2="603.9925">
				<stop  offset="0" style="stop-color:#DAE3FE"/>
				<stop  offset="1" style="stop-color:#E9EFFD"/>
			</linearGradient>
			<path class="st102" d="M917.5,600.6l-6.9-1.2c-2.2-0.4-4.3,1.1-4.7,3.3c-0.4,2.2,1.1,4.3,3.3,4.7l0,0l6.8,1.2l0,0
				c2.2,0.4,4.4-1.1,4.8-3.3C921.2,603.1,919.7,601,917.5,600.6L917.5,600.6z"/>
			<linearGradient id="SVGID_99_" gradientUnits="userSpaceOnUse" x1="883.0728" y1="600.2988" x2="898.1123" y2="600.2988">
				<stop  offset="0" style="stop-color:#DAE3FE"/>
				<stop  offset="1" style="stop-color:#E9EFFD"/>
			</linearGradient>
			<path class="st103" d="M894.6,596.8l-6.9-1c-2.2-0.3-4.3,1.2-4.6,3.5c-0.3,2.2,1.2,4.3,3.5,4.6l0,0l6.8,1l0,0
				c2.2,0.3,4.3-1.2,4.6-3.4C898.4,599.2,896.8,597.1,894.6,596.8L894.6,596.8z"/>
			<linearGradient id="SVGID_100_" gradientUnits="userSpaceOnUse" x1="860.2034" y1="597.409" x2="875.2391" y2="597.409">
				<stop  offset="0" style="stop-color:#DAE3FE"/>
				<stop  offset="1" style="stop-color:#E9EFFD"/>
			</linearGradient>
			<path class="st104" d="M871.6,593.7l-6.9-0.7c-2.2-0.2-4.2,1.4-4.5,3.6c-0.2,2.2,1.4,4.2,3.6,4.5l0,0l6.8,0.7l0,0
				c2.2,0.2,4.2-1.4,4.5-3.6C875.5,596,873.8,594,871.6,593.7L871.6,593.7z"/>
			<linearGradient id="SVGID_101_" gradientUnits="userSpaceOnUse" x1="837.2517" y1="595.329" x2="852.2757" y2="595.329">
				<stop  offset="0" style="stop-color:#DAE3FE"/>
				<stop  offset="1" style="stop-color:#E9EFFD"/>
			</linearGradient>
			<path class="st105" d="M848.5,591.5l-6.9-0.5c-2.2-0.2-4.2,1.5-4.3,3.7c-0.2,2.2,1.5,4.2,3.7,4.3l0,0l6.9,0.5l0,0
				c2.2,0.2,4.2-1.5,4.3-3.7C852.4,593.6,850.8,591.7,848.5,591.5L848.5,591.5z"/>
			<linearGradient id="SVGID_102_" gradientUnits="userSpaceOnUse" x1="814.2456" y1="594.0654" x2="829.2485" y2="594.0654">
				<stop  offset="0" style="stop-color:#DAE3FE"/>
				<stop  offset="1" style="stop-color:#E9EFFD"/>
			</linearGradient>
			<path class="st106" d="M825.4,590.2l-7-0.3c-2.2-0.1-4.1,1.7-4.2,3.9c-0.1,2.2,1.7,4.1,3.9,4.2l0,0l6.9,0.3l0,0
				c2.2,0.1,4.1-1.6,4.2-3.9C829.3,592.1,827.6,590.3,825.4,590.2L825.4,590.2z"/>
			<linearGradient id="SVGID_103_" gradientUnits="userSpaceOnUse" x1="791.2167" y1="593.6242" x2="806.1896" y2="593.6242">
				<stop  offset="0" style="stop-color:#DAE3FE"/>
				<stop  offset="1" style="stop-color:#E9EFFD"/>
			</linearGradient>
			<path class="st107" d="M802.2,589.6l-7,0c-2.2,0-4,1.8-4,4c0,2.2,1.8,4,4,4h0l6.9,0h0c2.2,0,4-1.8,4-4
				C806.2,591.4,804.4,589.6,802.2,589.6L802.2,589.6z"/>
			<linearGradient id="SVGID_104_" gradientUnits="userSpaceOnUse" x1="768.1929" y1="594.007" x2="783.1283" y2="594.007">
				<stop  offset="0" style="stop-color:#DAE3FE"/>
				<stop  offset="1" style="stop-color:#E9EFFD"/>
			</linearGradient>
			<path class="st108" d="M779,589.9l-7,0.2c-2.2,0.1-3.9,1.9-3.8,4.1c0.1,2.2,1.9,3.9,4.1,3.8l0,0l6.9-0.2l0,0
				c2.2-0.1,3.9-1.9,3.9-4.1C783.1,591.5,781.2,589.8,779,589.9L779,589.9z"/>
			<linearGradient id="SVGID_105_" gradientUnits="userSpaceOnUse" x1="745.2027" y1="595.2299" x2="760.091" y2="595.2299">
				<stop  offset="0" style="stop-color:#DAE3FE"/>
				<stop  offset="1" style="stop-color:#E9EFFD"/>
			</linearGradient>
			<path class="st109" d="M755.8,591l-6.9,0.5c-2.2,0.2-3.8,2.1-3.7,4.2c0.2,2.2,2.1,3.8,4.2,3.7l0,0l6.9-0.5l0,0
				c2.2-0.2,3.8-2.1,3.7-4.2C759.9,592.5,758,590.9,755.8,591L755.8,591z"/>
			<linearGradient id="SVGID_106_" gradientUnits="userSpaceOnUse" x1="722.2778" y1="597.294" x2="737.1105" y2="597.294">
				<stop  offset="0" style="stop-color:#DAE3FE"/>
				<stop  offset="1" style="stop-color:#E9EFFD"/>
			</linearGradient>
			<path class="st110" d="M732.7,593l-6.9,0.8c-2.2,0.2-3.7,2.2-3.5,4.4c0.2,2.2,2.2,3.7,4.4,3.5l0,0l6.8-0.7l0,0
				c2.2-0.2,3.7-2.2,3.5-4.4C736.9,594.3,734.9,592.7,732.7,593L732.7,593z"/>
			<linearGradient id="SVGID_107_" gradientUnits="userSpaceOnUse" x1="699.4473" y1="600.2051" x2="714.215" y2="600.2051">
				<stop  offset="0" style="stop-color:#DAE3FE"/>
				<stop  offset="1" style="stop-color:#E9EFFD"/>
			</linearGradient>
			<path class="st111" d="M709.7,595.8l-6.9,1c-2.2,0.3-3.6,2.3-3.3,4.5c0.3,2.2,2.3,3.6,4.5,3.3l0,0l6.8-1l0,0
				c2.2-0.3,3.6-2.3,3.3-4.5C713.9,597,711.9,595.5,709.7,595.8L709.7,595.8z"/>
			<linearGradient id="SVGID_108_" gradientUnits="userSpaceOnUse" x1="676.7509" y1="603.9976" x2="691.444" y2="603.9976">
				<stop  offset="0" style="stop-color:#DAE3FE"/>
				<stop  offset="1" style="stop-color:#E9EFFD"/>
			</linearGradient>
			<path class="st112" d="M686.8,599.5l-6.8,1.3c-2.1,0.4-3.5,2.5-3.1,4.6c0.4,2.1,2.5,3.5,4.6,3.1l0,0l6.7-1.3l0,0
				c2.1-0.4,3.5-2.5,3.1-4.6C691,600.5,688.9,599.1,686.8,599.5L686.8,599.5z"/>
			<linearGradient id="SVGID_109_" gradientUnits="userSpaceOnUse" x1="654.2454" y1="608.75" x2="668.8451" y2="608.75">
				<stop  offset="0" style="stop-color:#DAE3FE"/>
				<stop  offset="1" style="stop-color:#E9EFFD"/>
			</linearGradient>
			<path class="st113" d="M664,604.2l-6.8,1.6c-2.1,0.5-3.4,2.6-2.9,4.7c0.5,2.1,2.6,3.4,4.7,2.9l0,0l6.7-1.6l0.1,0
				c2.1-0.5,3.4-2.6,2.9-4.7C668.3,605,666.2,603.7,664,604.2L664,604.2z"/>
			<linearGradient id="SVGID_110_" gradientUnits="userSpaceOnUse" x1="631.9865" y1="614.5162" x2="646.4751" y2="614.5162">
				<stop  offset="0" style="stop-color:#DAE3FE"/>
				<stop  offset="1" style="stop-color:#E9EFFD"/>
			</linearGradient>
			<path class="st114" d="M641.5,609.8l-6.7,1.9c-2.1,0.6-3.3,2.7-2.7,4.8c0.6,2.1,2.7,3.3,4.8,2.7l0,0l6.6-1.9l0.1,0
				c2.1-0.6,3.3-2.7,2.7-4.8C645.7,610.4,643.6,609.2,641.5,609.8L641.5,609.8z"/>
			<linearGradient id="SVGID_111_" gradientUnits="userSpaceOnUse" x1="610.0796" y1="621.3518" x2="624.3864" y2="621.3518">
				<stop  offset="0" style="stop-color:#DAE3FE"/>
				<stop  offset="1" style="stop-color:#E9EFFD"/>
			</linearGradient>
			<path class="st115" d="M619.3,616.6l-6.6,2.3c-2,0.7-3.1,2.9-2.4,4.9c0.7,2,2.9,3.1,4.9,2.4l0,0l6.5-2.2l0.1,0
				c2-0.7,3.1-2.9,2.4-4.9C623.5,617,621.3,615.9,619.3,616.6L619.3,616.6z"/>
			<linearGradient id="SVGID_112_" gradientUnits="userSpaceOnUse" x1="588.5753" y1="629.3376" x2="602.652" y2="629.3376">
				<stop  offset="0" style="stop-color:#DAE3FE"/>
				<stop  offset="1" style="stop-color:#E9EFFD"/>
			</linearGradient>
			<path class="st116" d="M597.4,624.5l-6.5,2.6c-1.9,0.8-2.9,3-2.1,4.9c0.8,1.9,3,2.9,4.9,2.1l0,0l6.4-2.5l0.1,0
				c2-0.8,2.9-3,2.1-4.9C601.6,624.7,599.4,623.7,597.4,624.5L597.4,624.5z"/>
			<linearGradient id="SVGID_113_" gradientUnits="userSpaceOnUse" x1="567.5771" y1="638.5403" x2="581.3906" y2="638.5403">
				<stop  offset="0" style="stop-color:#DAE3FE"/>
				<stop  offset="1" style="stop-color:#E9EFFD"/>
			</linearGradient>
			<path class="st117" d="M576,633.7l-6.3,3c-1.9,0.9-2.7,3.1-1.8,5c0.9,1.9,3.1,2.7,5,1.8l0,0l6.2-2.9l0.1,0c1.9-0.9,2.7-3.1,1.8-5
				C580.2,633.6,577.9,632.8,576,633.7L576,633.7z"/>
			<linearGradient id="SVGID_114_" gradientUnits="userSpaceOnUse" x1="547.2099" y1="649.0331" x2="560.7202" y2="649.0331">
				<stop  offset="0" style="stop-color:#DAE3FE"/>
				<stop  offset="1" style="stop-color:#E9EFFD"/>
			</linearGradient>
			<path class="st118" d="M555.2,644.1l-6.1,3.4c-1.8,1-2.4,3.2-1.4,5c1,1.8,3.2,2.4,5,1.4l0.1,0l6-3.3l0.1,0c1.8-1,2.4-3.2,1.5-5
				C559.3,643.8,557,643.1,555.2,644.1L555.2,644.1z"/>
			<linearGradient id="SVGID_115_" gradientUnits="userSpaceOnUse" x1="527.6184" y1="660.8844" x2="540.7802" y2="660.8844">
				<stop  offset="0" style="stop-color:#DAE3FE"/>
				<stop  offset="1" style="stop-color:#E9EFFD"/>
			</linearGradient>
			<path class="st119" d="M535.1,655.9l-5.9,3.8c-1.7,1.1-2.2,3.4-1.1,5c1.1,1.7,3.4,2.2,5,1.1l0.1,0l5.7-3.7l0.1,0
				c1.7-1.1,2.2-3.4,1.1-5.1C539.1,655.3,536.8,654.8,535.1,655.9L535.1,655.9z"/>
			<linearGradient id="SVGID_116_" gradientUnits="userSpaceOnUse" x1="508.9764" y1="674.149" x2="521.7313" y2="674.149">
				<stop  offset="0" style="stop-color:#DAE3FE"/>
				<stop  offset="1" style="stop-color:#E9EFFD"/>
			</linearGradient>
			<path class="st120" d="M515.9,669.2l-5.6,4.3c-1.6,1.2-1.9,3.5-0.7,5c1.2,1.6,3.5,1.9,5,0.7l0.1,0l5.4-4.1l0.1-0.1
				c1.6-1.2,1.9-3.5,0.7-5C519.8,668.3,517.5,668,515.9,669.2L515.9,669.2z"/>
			<linearGradient id="SVGID_117_" gradientUnits="userSpaceOnUse" x1="491.4692" y1="688.8571" x2="503.7602" y2="688.8571">
				<stop  offset="0" style="stop-color:#DAE3FE"/>
				<stop  offset="1" style="stop-color:#E9EFFD"/>
			</linearGradient>
			<path class="st121" d="M497.8,683.9l-5.2,4.7c-1.4,1.3-1.6,3.5-0.2,5c1.3,1.4,3.5,1.6,5,0.2l0.1,0l5.1-4.6l0.1-0.1
				c1.5-1.3,1.6-3.6,0.3-5C501.5,682.7,499.3,682.6,497.8,683.9L497.8,683.9z"/>
			<linearGradient id="SVGID_118_" gradientUnits="userSpaceOnUse" x1="475.2941" y1="705.0053" x2="487.0599" y2="705.0053">
				<stop  offset="0" style="stop-color:#DAE3FE"/>
				<stop  offset="1" style="stop-color:#E9EFFD"/>
			</linearGradient>
			<path class="st122" d="M481,700.1l-4.8,5.1c-1.3,1.4-1.2,3.6,0.2,4.9c1.4,1.3,3.6,1.2,4.9-0.2l0.1-0.1l4.7-5l0.1-0.1
				c1.3-1.4,1.2-3.6-0.2-4.9C484.5,698.6,482.3,698.6,481,700.1L481,700.1z"/>
			<linearGradient id="SVGID_119_" gradientUnits="userSpaceOnUse" x1="460.6601" y1="722.553" x2="471.832" y2="722.553">
				<stop  offset="0" style="stop-color:#DAE3FE"/>
				<stop  offset="1" style="stop-color:#E9EFFD"/>
			</linearGradient>
			<path class="st123" d="M465.6,717.7l-4.3,5.6c-1.2,1.5-0.9,3.7,0.6,4.8c1.5,1.2,3.7,0.9,4.8-0.6l0.1-0.1l4.2-5.4l0.1-0.1
				c1.2-1.5,0.9-3.7-0.6-4.8C469,715.9,466.8,716.2,465.6,717.7L465.6,717.7z"/>
			<linearGradient id="SVGID_120_" gradientUnits="userSpaceOnUse" x1="447.8795" y1="741.4935" x2="458.3593" y2="741.4935">
				<stop  offset="0" style="stop-color:#DAE3FE"/>
				<stop  offset="1" style="stop-color:#E9EFFD"/>
			</linearGradient>
			<path class="st124" d="M452.1,736.7l-3.7,6c-1,1.6-0.5,3.7,1.1,4.7c1.6,1,3.7,0.5,4.7-1.1l0-0.1l3.6-5.8l0.1-0.1
				c1-1.6,0.5-3.7-1.1-4.7C455.2,734.6,453.1,735.1,452.1,736.7L452.1,736.7z"/>
			<linearGradient id="SVGID_121_" gradientUnits="userSpaceOnUse" x1="437.0525" y1="761.6378" x2="446.8343" y2="761.6378">
				<stop  offset="0" style="stop-color:#DAE3FE"/>
				<stop  offset="1" style="stop-color:#E9EFFD"/>
			</linearGradient>
			<path class="st125" d="M440.5,757l-3.1,6.3c-0.8,1.7-0.1,3.6,1.5,4.5c1.7,0.8,3.6,0.1,4.5-1.5l0-0.1l3-6.1l0-0.1
				c0.8-1.7,0.1-3.7-1.5-4.5C443.3,754.7,441.3,755.4,440.5,757L440.5,757z"/>
			<linearGradient id="SVGID_122_" gradientUnits="userSpaceOnUse" x1="428.2083" y1="782.764" x2="437.2824" y2="782.764">
				<stop  offset="0" style="stop-color:#DAE3FE"/>
				<stop  offset="1" style="stop-color:#E9EFFD"/>
			</linearGradient>
			<path class="st126" d="M430.9,778.3l-2.5,6.6c-0.6,1.7,0.2,3.6,1.9,4.2c1.7,0.6,3.6-0.2,4.2-1.9l0-0.1l2.4-6.4l0-0.1
				c0.7-1.7-0.2-3.6-1.9-4.3C433.5,775.8,431.6,776.6,430.9,778.3L430.9,778.3z"/>
			<linearGradient id="SVGID_123_" gradientUnits="userSpaceOnUse" x1="421.3538" y1="804.6437" x2="429.7188" y2="804.6437">
				<stop  offset="0" style="stop-color:#DAE3FE"/>
				<stop  offset="1" style="stop-color:#E9EFFD"/>
			</linearGradient>
			<path class="st127" d="M423.3,800.4l-1.9,6.7c-0.5,1.7,0.5,3.5,2.2,4c1.7,0.5,3.5-0.5,4-2.2l0-0.1l1.9-6.6l0-0.1
				c0.5-1.7-0.5-3.5-2.2-4C425.6,797.7,423.8,798.7,423.3,800.4L423.3,800.4z"/>
			<linearGradient id="SVGID_124_" gradientUnits="userSpaceOnUse" x1="416.4714" y1="827.0803" x2="424.1382" y2="827.0803">
				<stop  offset="0" style="stop-color:#DAE3FE"/>
				<stop  offset="1" style="stop-color:#E9EFFD"/>
			</linearGradient>
			<path class="st128" d="M417.8,823.1l-1.3,6.9c-0.3,1.7,0.8,3.4,2.5,3.7c1.7,0.3,3.4-0.8,3.7-2.5l0-0.1l1.3-6.7l0-0.1
				c0.3-1.7-0.8-3.4-2.5-3.7C419.8,820.2,418.1,821.3,417.8,823.1L417.8,823.1z"/>
			<linearGradient id="SVGID_125_" gradientUnits="userSpaceOnUse" x1="413.5484" y1="849.8907" x2="420.5193" y2="849.8907">
				<stop  offset="0" style="stop-color:#DAE3FE"/>
				<stop  offset="1" style="stop-color:#E9EFFD"/>
			</linearGradient>
			<path class="st129" d="M414.2,846.1l-0.7,7c-0.2,1.7,1.1,3.3,2.8,3.4c1.7,0.2,3.3-1.1,3.4-2.8l0-0.1l0.7-6.8l0-0.1
				c0.2-1.7-1.1-3.3-2.8-3.4C416,843.1,414.4,844.4,414.2,846.1L414.2,846.1z"/>
			<linearGradient id="SVGID_126_" gradientUnits="userSpaceOnUse" x1="412.5692" y1="872.8962" x2="418.8495" y2="872.8962">
				<stop  offset="0" style="stop-color:#DAE3FE"/>
				<stop  offset="1" style="stop-color:#E9EFFD"/>
			</linearGradient>
			<path class="st130" d="M412.7,869.4l-0.1,7c0,1.7,1.3,3.1,3,3.1c1.7,0,3.1-1.3,3.1-3l0-0.1l0.1-6.8l0-0.1c0-1.7-1.3-3.1-3-3.1
				C414.1,866.3,412.7,867.6,412.7,869.4L412.7,869.4z"/>
			<linearGradient id="SVGID_127_" gradientUnits="userSpaceOnUse" x1="413.0295" y1="895.9315" x2="419.5775" y2="895.9315">
				<stop  offset="0" style="stop-color:#DAE3FE"/>
				<stop  offset="1" style="stop-color:#E9EFFD"/>
			</linearGradient>
			<path class="st131" d="M413,892.7l0.5,7c0.1,1.7,1.6,2.9,3.2,2.8c1.7-0.1,2.9-1.6,2.8-3.2l0-0.1l-0.5-6.8l0-0.1
				c-0.1-1.7-1.6-2.9-3.2-2.8C414.2,889.5,412.9,891,413,892.7L413,892.7z"/>
			<linearGradient id="SVGID_128_" gradientUnits="userSpaceOnUse" x1="415.3257" y1="918.8345" x2="422.3572" y2="918.8345">
				<stop  offset="0" style="stop-color:#DAE3FE"/>
				<stop  offset="1" style="stop-color:#E9EFFD"/>
			</linearGradient>
			<path class="st132" d="M415.4,915.8l1.1,6.9c0.3,1.6,1.8,2.7,3.4,2.5c1.6-0.3,2.7-1.8,2.5-3.4l0-0.1l-1-6.8l0-0.1
				c-0.2-1.6-1.8-2.8-3.4-2.5C416.2,912.7,415.1,914.2,415.4,915.8L415.4,915.8z"/>
			<linearGradient id="SVGID_129_" gradientUnits="userSpaceOnUse" x1="419.5508" y1="941.4407" x2="427.0668" y2="941.4407">
				<stop  offset="0" style="stop-color:#DAE3FE"/>
				<stop  offset="1" style="stop-color:#E9EFFD"/>
			</linearGradient>
			<path class="st133" d="M419.6,938.8l1.7,6.8c0.4,1.6,2,2.5,3.5,2.1c1.6-0.4,2.5-2,2.1-3.5l0-0.1l-1.6-6.7l0-0.1
				c-0.4-1.6-2-2.6-3.5-2.2C420.2,935.6,419.3,937.2,419.6,938.8L419.6,938.8z"/>
			<linearGradient id="SVGID_130_" gradientUnits="userSpaceOnUse" x1="425.7092" y1="963.5781" x2="433.7125" y2="963.5781">
				<stop  offset="0" style="stop-color:#DAE3FE"/>
				<stop  offset="1" style="stop-color:#E9EFFD"/>
			</linearGradient>
			<path class="st134" d="M425.9,961.2l2.3,6.6c0.5,1.5,2.1,2.3,3.6,1.8c1.5-0.5,2.3-2.1,1.8-3.6l0-0.1l-2.2-6.5l0-0.1
				c-0.5-1.5-2.1-2.3-3.7-1.8C426.2,958,425.4,959.7,425.9,961.2L425.9,961.2z"/>
			<linearGradient id="SVGID_131_" gradientUnits="userSpaceOnUse" x1="433.8042" y1="985.0479" x2="442.2896" y2="985.0479">
				<stop  offset="0" style="stop-color:#DAE3FE"/>
				<stop  offset="1" style="stop-color:#E9EFFD"/>
			</linearGradient>
			<path class="st135" d="M434,983l2.8,6.4c0.6,1.4,2.3,2.1,3.7,1.4c1.4-0.6,2.1-2.3,1.4-3.7l0-0.1l-2.7-6.3l0-0.1
				c-0.6-1.4-2.3-2.1-3.7-1.5C434.1,979.9,433.4,981.6,434,983L434,983z"/>
			<linearGradient id="SVGID_132_" gradientUnits="userSpaceOnUse" x1="443.8344" y1="1005.6672" x2="452.8075" y2="1005.6672">
				<stop  offset="0" style="stop-color:#DAE3FE"/>
				<stop  offset="1" style="stop-color:#E9EFFD"/>
			</linearGradient>
			<path class="st136" d="M444.2,1004l3.4,6.1c0.7,1.3,2.4,1.8,3.8,1.1c1.3-0.7,1.8-2.4,1.1-3.8l0-0.1l-3.3-6l0-0.1
				c-0.7-1.3-2.4-1.8-3.8-1.1C443.9,1000.9,443.4,1002.6,444.2,1004L444.2,1004z"/>
			<linearGradient id="SVGID_133_" gradientUnits="userSpaceOnUse" x1="455.8149" y1="1025.2074" x2="465.1982" y2="1025.2074">
				<stop  offset="0" style="stop-color:#DAE3FE"/>
				<stop  offset="1" style="stop-color:#E9EFFD"/>
			</linearGradient>
			<path class="st137" d="M456.3,1023.9l4,5.7c0.9,1.2,2.5,1.5,3.7,0.7c1.2-0.8,1.5-2.5,0.7-3.7l0-0.1l-3.9-5.6l0-0.1
				c-0.8-1.2-2.5-1.5-3.8-0.7C455.8,1021,455.4,1022.7,456.3,1023.9L456.3,1023.9z"/>
			<linearGradient id="SVGID_134_" gradientUnits="userSpaceOnUse" x1="469.6938" y1="1043.4534" x2="479.4504" y2="1043.4534">
				<stop  offset="0" style="stop-color:#DAE3FE"/>
				<stop  offset="1" style="stop-color:#E9EFFD"/>
			</linearGradient>
			<path class="st138" d="M470.3,1042.5l4.6,5.3c0.9,1.1,2.6,1.2,3.7,0.3c1.1-0.9,1.2-2.6,0.3-3.6l-0.1-0.1l-4.4-5.2l-0.1-0.1
				c-0.9-1.1-2.6-1.2-3.7-0.3C469.5,1039.7,469.4,1041.4,470.3,1042.5L470.3,1042.5z"/>
			<linearGradient id="SVGID_135_" gradientUnits="userSpaceOnUse" x1="485.3734" y1="1060.1721" x2="495.4797" y2="1060.1721">
				<stop  offset="0" style="stop-color:#DAE3FE"/>
				<stop  offset="1" style="stop-color:#E9EFFD"/>
			</linearGradient>
			<path class="st139" d="M486.2,1059.6l5.1,4.8c1,0.9,2.6,0.9,3.5-0.1c0.9-1,0.9-2.6-0.1-3.5l-0.1-0.1l-4.9-4.7l-0.1-0.1
				c-1-1-2.6-0.9-3.6,0.1C485.1,1057,485.1,1058.6,486.2,1059.6L486.2,1059.6z"/>
			<linearGradient id="SVGID_136_" gradientUnits="userSpaceOnUse" x1="502.7152" y1="1075.1984" x2="513.0856" y2="1075.1984">
				<stop  offset="0" style="stop-color:#DAE3FE"/>
				<stop  offset="1" style="stop-color:#E9EFFD"/>
			</linearGradient>
			<path class="st140" d="M503.7,1075l5.5,4.3c1.1,0.8,2.6,0.6,3.4-0.4c0.8-1.1,0.6-2.6-0.4-3.4l-0.1,0l-5.4-4.2l-0.1,0
				c-1.1-0.8-2.6-0.6-3.4,0.4C502.4,1072.6,502.6,1074.2,503.7,1075L503.7,1075z"/>
			<linearGradient id="SVGID_137_" gradientUnits="userSpaceOnUse" x1="521.4756" y1="1088.4329" x2="532.0484" y2="1088.4329">
				<stop  offset="0" style="stop-color:#DAE3FE"/>
				<stop  offset="1" style="stop-color:#E9EFFD"/>
			</linearGradient>
			<path class="st141" d="M522.6,1088.6l5.9,3.7c1.1,0.7,2.5,0.4,3.2-0.7c0.7-1.1,0.4-2.5-0.7-3.2l-0.1,0l-5.8-3.7l-0.1,0
				c-1.1-0.7-2.5-0.4-3.2,0.7C521.1,1086.4,521.5,1087.9,522.6,1088.6L522.6,1088.6z"/>
			<linearGradient id="SVGID_138_" gradientUnits="userSpaceOnUse" x1="541.4373" y1="1099.8236" x2="552.1461" y2="1099.8236">
				<stop  offset="0" style="stop-color:#DAE3FE"/>
				<stop  offset="1" style="stop-color:#E9EFFD"/>
			</linearGradient>
			<path class="st142" d="M542.7,1100.3l6.2,3.1c1.1,0.6,2.4,0.1,3-1c0.6-1.1,0.1-2.4-1-3l-0.1,0l-6.1-3.1l-0.1,0
				c-1.1-0.6-2.5-0.1-3,1C541.1,1098.3,541.6,1099.7,542.7,1100.3L542.7,1100.3z"/>
			<linearGradient id="SVGID_139_" gradientUnits="userSpaceOnUse" x1="562.3859" y1="1109.34" x2="573.1619" y2="1109.34">
				<stop  offset="0" style="stop-color:#DAE3FE"/>
				<stop  offset="1" style="stop-color:#E9EFFD"/>
			</linearGradient>
			<path class="st143" d="M563.8,1110.1l6.5,2.6c1.1,0.4,2.3-0.1,2.8-1.2c0.4-1.1-0.1-2.3-1.2-2.8l-0.1,0l-6.3-2.6l-0.1,0
				c-1.1-0.5-2.4,0.1-2.8,1.2C562.1,1108.4,562.6,1109.6,563.8,1110.1L563.8,1110.1z"/>
			<linearGradient id="SVGID_140_" gradientUnits="userSpaceOnUse" x1="584.111" y1="1116.968" x2="594.9151" y2="1116.968">
				<stop  offset="0" style="stop-color:#DAE3FE"/>
				<stop  offset="1" style="stop-color:#E9EFFD"/>
			</linearGradient>
			<path class="st144" d="M585.6,1118l6.7,2c1.1,0.3,2.2-0.3,2.6-1.4c0.3-1.1-0.3-2.2-1.4-2.5l-0.1,0l-6.6-2l-0.1,0
				c-1.1-0.3-2.3,0.3-2.6,1.4C583.9,1116.5,584.5,1117.6,585.6,1118L585.6,1118z"/>
			<linearGradient id="SVGID_141_" gradientUnits="userSpaceOnUse" x1="606.4532" y1="1122.7019" x2="617.2155" y2="1122.7019">
				<stop  offset="0" style="stop-color:#DAE3FE"/>
				<stop  offset="1" style="stop-color:#E9EFFD"/>
			</linearGradient>
			<path class="st145" d="M608,1123.9l6.8,1.4c1.1,0.2,2.1-0.5,2.3-1.5c0.2-1.1-0.5-2.1-1.5-2.3l0,0l-6.7-1.5l0,0
				c-1.1-0.2-2.1,0.5-2.4,1.5C606.3,1122.6,606.9,1123.7,608,1123.9L608,1123.9z"/>
			<linearGradient id="SVGID_142_" gradientUnits="userSpaceOnUse" x1="629.2199" y1="1126.5306" x2="639.8956" y2="1126.5306">
				<stop  offset="0" style="stop-color:#DAE3FE"/>
				<stop  offset="1" style="stop-color:#E9EFFD"/>
			</linearGradient>
			<path class="st146" d="M630.9,1128l6.9,0.8c1,0.1,2-0.6,2.1-1.6c0.1-1-0.6-1.9-1.6-2.1l0,0l-6.8-0.9l0,0c-1-0.1-2,0.6-2.1,1.6
				C629.1,1126.9,629.8,1127.9,630.9,1128L630.9,1128z"/>
			<linearGradient id="SVGID_143_" gradientUnits="userSpaceOnUse" x1="652.2516" y1="1128.4424" x2="662.7922" y2="1128.4424">
				<stop  offset="0" style="stop-color:#DAE3FE"/>
				<stop  offset="1" style="stop-color:#E9EFFD"/>
			</linearGradient>
			<path class="st147" d="M654,1130.1l7,0.3c1,0,1.8-0.7,1.8-1.7c0-1-0.7-1.8-1.7-1.8l0,0l-6.9-0.3l0,0c-1,0-1.8,0.7-1.9,1.7
				C652.2,1129.2,653,1130.1,654,1130.1L654,1130.1z"/>
			<linearGradient id="SVGID_144_" gradientUnits="userSpaceOnUse" x1="675.387" y1="1128.4467" x2="685.7441" y2="1128.4467">
				<stop  offset="0" style="stop-color:#DAE3FE"/>
				<stop  offset="1" style="stop-color:#E9EFFD"/>
			</linearGradient>
			<path class="st148" d="M677.2,1130.3l7-0.3c0.9,0,1.7-0.8,1.6-1.8c0-0.9-0.8-1.6-1.8-1.6l0,0l-6.9,0.3l0,0
				c-0.9,0-1.7,0.8-1.6,1.8C675.4,1129.6,676.2,1130.3,677.2,1130.3L677.2,1130.3z"/>
			<linearGradient id="SVGID_145_" gradientUnits="userSpaceOnUse" x1="698.4615" y1="1126.4625" x2="708.5962" y2="1126.4625">
				<stop  offset="0" style="stop-color:#DAE3FE"/>
				<stop  offset="1" style="stop-color:#E9EFFD"/>
			</linearGradient>
			<path class="st149" d="M700.3,1128.5l6.9-0.9c0.9-0.1,1.5-0.9,1.4-1.8c-0.1-0.9-0.9-1.5-1.8-1.4l0,0l-6.8,0.9l0,0
				c-0.9,0.1-1.5,0.9-1.4,1.8C698.6,1128,699.4,1128.6,700.3,1128.5L700.3,1128.5z"/>
			<linearGradient id="SVGID_146_" gradientUnits="userSpaceOnUse" x1="721.324" y1="1122.4851" x2="731.1592" y2="1122.4851">
				<stop  offset="0" style="stop-color:#DAE3FE"/>
				<stop  offset="1" style="stop-color:#E9EFFD"/>
			</linearGradient>
			<path class="st150" d="M723.2,1124.7l6.8-1.5c0.8-0.2,1.3-1,1.1-1.8c-0.2-0.8-1-1.3-1.8-1.1l0,0l-6.7,1.5l0,0
				c-0.8,0.2-1.4,1-1.2,1.8C721.5,1124.4,722.4,1124.9,723.2,1124.7L723.2,1124.7z"/>
			<linearGradient id="SVGID_147_" gradientUnits="userSpaceOnUse" x1="743.7462" y1="1116.4928" x2="753.2245" y2="1116.4928">
				<stop  offset="0" style="stop-color:#DAE3FE"/>
				<stop  offset="1" style="stop-color:#E9EFFD"/>
			</linearGradient>
			<path class="st151" d="M745.6,1118.9l6.6-2.1c0.7-0.2,1.2-1,0.9-1.8c-0.2-0.7-1-1.1-1.8-0.9l0,0l-6.5,2.1l0,0
				c-0.8,0.2-1.2,1.1-0.9,1.8C744.1,1118.7,744.9,1119.2,745.6,1118.9L745.6,1118.9z"/>
			<linearGradient id="SVGID_148_" gradientUnits="userSpaceOnUse" x1="765.5377" y1="1108.4606" x2="774.6145" y2="1108.4606">
				<stop  offset="0" style="stop-color:#DAE3FE"/>
				<stop  offset="1" style="stop-color:#E9EFFD"/>
			</linearGradient>
			<path class="st152" d="M767.4,1111.1l6.4-2.8c0.7-0.3,1-1.1,0.7-1.7c-0.3-0.7-1.1-1-1.7-0.7l0,0l-6.3,2.7l0,0
				c-0.7,0.3-1,1.1-0.7,1.8C765.9,1111,766.7,1111.4,767.4,1111.1L767.4,1111.1z"/>
			<linearGradient id="SVGID_149_" gradientUnits="userSpaceOnUse" x1="786.4984" y1="1098.3813" x2="795.0934" y2="1098.3813">
				<stop  offset="0" style="stop-color:#DAE3FE"/>
				<stop  offset="1" style="stop-color:#E9EFFD"/>
			</linearGradient>
			<path class="st153" d="M788.4,1101.1l6.1-3.4c0.6-0.3,0.8-1.1,0.5-1.7c-0.3-0.6-1.1-0.8-1.7-0.5l0,0l-6,3.3l0,0
				c-0.6,0.3-0.8,1.1-0.5,1.7C787,1101.3,787.8,1101.5,788.4,1101.1L788.4,1101.1z"/>
			<linearGradient id="SVGID_150_" gradientUnits="userSpaceOnUse" x1="806.3849" y1="1086.7131" x2="813.1988" y2="1086.7131">
				<stop  offset="0" style="stop-color:#DAE3FE"/>
				<stop  offset="1" style="stop-color:#E9EFFD"/>
			</linearGradient>
			<path class="st154" d="M808.2,1089.2l4.5-3.1c0.5-0.4,0.7-1.1,0.3-1.6c-0.4-0.5-1.1-0.7-1.6-0.3l0,0l-4.5,3l0,0
				c-0.5,0.4-0.7,1.1-0.3,1.6C807,1089.4,807.7,1089.6,808.2,1089.2L808.2,1089.2z"/>
		</g>
		<g>
			<g>
				<path class="st2" d="M526.3,634.8c-3,0-5.7-1.9-6.7-4.7l-9.9-27.9c-13.6-3.3-26.6-8.6-38.7-15.7l-26.5,13.2
					c-2.7,1.3-6,0.8-8.1-1.3L409,571.5c-2.1-2.1-2.7-5.4-1.4-8.1l12.7-26.7c-7.3-12-12.8-24.9-16.3-38.4l-28-9.4
					c-2.9-1-4.8-3.6-4.8-6.6l-0.3-38.4c0-3,1.9-5.7,4.7-6.7l27.9-9.9c3.3-13.6,8.6-26.6,15.7-38.7L405.9,362c-1.3-2.7-0.8-6,1.3-8.1
					l26.9-27.4c2.1-2.1,5.4-2.7,8.1-1.4l26.7,12.7c12-7.3,24.9-12.8,38.4-16.3l9.4-28c1-2.9,3.6-4.8,6.6-4.8l38.4-0.3c0,0,0,0,0.1,0
					c3,0,5.7,1.9,6.7,4.7l9.9,27.9c13.6,3.3,26.6,8.6,38.7,15.7l26.5-13.2c2.7-1.3,6-0.8,8.1,1.3l27.4,26.9c2.1,2.1,2.7,5.4,1.4,8.1
					l-12.7,26.7c7.3,12,12.8,24.9,16.3,38.4l28,9.4c2.9,1,4.8,3.6,4.8,6.6l0.3,38.4c0,3-1.9,5.7-4.7,6.7l-27.9,9.9
					c-3.3,13.6-8.6,26.6-15.7,38.7l13.2,26.5c1.3,2.7,0.8,6-1.3,8.1L654,596.6c-2.1,2.2-5.4,2.7-8.1,1.4l-26.7-12.7
					c-12,7.3-24.9,12.8-38.4,16.3l-9.4,28c-1,2.9-3.6,4.8-6.6,4.8L526.3,634.8C526.3,634.8,526.3,634.8,526.3,634.8z M471.4,576.4
					l2.1,1.3c12.6,7.7,26.2,13.2,40.6,16.4l2.4,0.5l11.1,31.3l35.8-0.3l10.6-31.4l2.4-0.6c14.3-3.5,27.8-9.2,40.3-17.1l2.1-1.3
					l30,14.3l25.1-25.5l-14.8-29.7l1.3-2.1c7.7-12.6,13.2-26.2,16.4-40.6l0.5-2.4l31.3-11.1l-0.3-35.8l-31.4-10.6l-0.6-2.4
					c-3.5-14.3-9.2-27.8-17.1-40.3l-1.3-2.1l14.3-29.9l-25.5-25.1l-29.7,14.8l-2.1-1.3c-12.6-7.7-26.2-13.2-40.6-16.4l-2.4-0.5
					l-11.1-31.3l-35.8,0.3l-10.6,31.4l-2.4,0.6c-14.3,3.5-27.8,9.2-40.3,17.1l-2.1,1.3l-29.9-14.3l-25.1,25.5l14.8,29.7L428,391
					c-7.7,12.6-13.2,26.2-16.4,40.6l-0.5,2.4L379.7,445l0.3,35.8l31.4,10.6l0.6,2.4c3.5,14.3,9.2,27.8,17.1,40.3l1.3,2.1l-14.3,30
					l25.5,25.1L471.4,576.4z M510.8,325.2L510.8,325.2L510.8,325.2z M543.5,559.3c-25.6,0-49.8-9.9-68.1-27.9
					c-18.5-18.2-28.8-42.5-29-68.4c-0.2-25.9,9.7-50.4,27.9-68.9c18.2-18.5,42.5-28.8,68.4-29c6.9-0.1,13.8,0.6,20.6,2
					c2.4,0.5,3.9,2.8,3.4,5.2c-0.5,2.4-2.8,3.9-5.2,3.4c-6.1-1.3-12.4-1.9-18.7-1.8c-23.6,0.2-45.7,9.6-62.2,26.4
					c-16.5,16.8-25.5,39-25.3,62.6c0.2,23.6,9.6,45.7,26.4,62.2c16.8,16.5,39,25.6,62.6,25.3c23.6-0.2,45.7-9.6,62.2-26.4
					c16.5-16.8,25.5-39,25.3-62.6c-0.1-16-4.6-31.6-12.9-45.2c-1.3-2.1-0.6-4.8,1.5-6.1c2.1-1.3,4.8-0.6,6.1,1.5
					c9.1,14.9,14,32.2,14.2,49.8c0.2,25.9-9.7,50.4-27.9,68.9c-18.2,18.5-42.5,28.8-68.4,29C544.1,559.3,543.8,559.3,543.5,559.3z"
					/>
				<path class="st2" d="M544,500.1c-6.8,0-13.4-1.8-19.4-5.3c-8.9-5.2-15.2-13.6-17.8-23.5c-2.6-10-1.2-20.3,4-29.2
					c5.2-8.9,13.6-15.2,23.5-17.8l0,0c20.6-5.4,41.7,7,47,27.6c2.6,10,1.2,20.3-4,29.2c-5.2,8.9-13.6,15.2-23.5,17.8
					C550.6,499.7,547.3,500.1,544,500.1z M536.6,432.9c-7.7,2-14.1,6.9-18.1,13.7c-4,6.8-5.1,14.8-3.1,22.5
					c2,7.7,6.9,14.1,13.7,18.1c6.8,4,14.8,5.1,22.5,3.1c7.7-2,14.1-6.9,18.1-13.7c4-6.8,5.1-14.8,3.1-22.5
					C568.7,438.2,552.4,428.7,536.6,432.9L536.6,432.9z"/>
			</g>
			<g>
				<path class="st2" d="M376.5,779c-1.4,0-2.8-0.7-3.7-1.9l-8.1-10.9c-6.4,0.3-12.8-0.3-19.1-1.7l-9.9,9.3
					c-1.4,1.3-3.5,1.6-5.3,0.7l-16.4-8.6c-1.7-0.9-2.7-2.8-2.4-4.8l2-13.4c-4.8-4.3-8.9-9.3-12.3-14.7l-13.6-0.4
					c-2-0.1-3.7-1.4-4.3-3.2l-5.5-17.6c-0.6-1.9,0.1-3.9,1.7-5.1l10.9-8.1c-0.3-6.4,0.3-12.8,1.7-19.1l-9.3-9.9
					c-1.3-1.4-1.6-3.5-0.7-5.3l8.6-16.4c0.9-1.7,2.8-2.7,4.8-2.4l13.4,2c4.3-4.8,9.3-8.9,14.7-12.3l0.4-13.6c0.1-2,1.3-3.7,3.2-4.3
					l17.6-5.5c1.9-0.6,3.9,0.1,5.1,1.7l8.1,10.9c6.4-0.3,12.8,0.3,19.1,1.7l9.9-9.3c1.4-1.3,3.5-1.6,5.3-0.7l16.4,8.6
					c1.7,0.9,2.7,2.8,2.4,4.8l-2,13.4c4.8,4.3,8.9,9.3,12.3,14.7l13.6,0.4c2,0.1,3.7,1.3,4.2,3.2l5.5,17.6c0.6,1.9-0.1,3.9-1.7,5.1
					l-10.9,8.1c0.3,6.4-0.3,12.8-1.7,19.1l9.3,9.9c1.3,1.4,1.6,3.5,0.7,5.3l-8.6,16.4c-0.9,1.7-2.8,2.7-4.8,2.4l-13.4-2
					c-4.3,4.8-9.3,8.9-14.7,12.3l-0.4,13.6c-0.1,2-1.3,3.7-3.2,4.2l-17.6,5.5C377.4,779,376.9,779,376.5,779z M375.9,772.5
					C375.9,772.5,375.8,772.5,375.9,772.5L375.9,772.5z M367.9,759.4l9.3,12.7l14.8-4.6l0.5-15.8l1.6-0.9c6-3.5,11.3-8,15.9-13.2
					l1.2-1.4l15.6,2.4l7.2-13.8l-10.8-11.5l0.5-1.8c1.7-6.7,2.4-13.7,1.9-20.6l-0.1-1.8l12.7-9.3l-4.6-14.8l-15.8-0.5l-0.9-1.6
					c-3.5-6-8-11.3-13.2-15.9l-1.4-1.2l2.4-15.6l-13.8-7.2l-11.5,10.8l-1.8-0.5c-6.7-1.7-13.7-2.4-20.6-1.9l-1.8,0.1l-9.3-12.7
					l-14.8,4.6l-0.5,15.8l-1.6,0.9c-6,3.5-11.3,8-15.9,13.2l-1.2,1.4l-15.6-2.4l-7.2,13.8l10.8,11.5l-0.5,1.8
					c-1.7,6.7-2.4,13.7-1.9,20.6l0.1,1.8l-12.7,9.3l4.6,14.8l15.8,0.5l0.9,1.6c3.5,6,8,11.3,13.2,15.9l1.4,1.2l-2.4,15.6l13.8,7.2
					l11.5-10.8l1.8,0.5c6.7,1.7,13.7,2.4,20.6,1.9L367.9,759.4z M333.6,768.7L333.6,768.7C333.6,768.7,333.6,768.7,333.6,768.7z
					 M317.2,760.1L317.2,760.1C317.2,760.1,317.2,760.1,317.2,760.1z M435,725.8C435,725.8,435,725.8,435,725.8L435,725.8z
					 M432.9,663.5C432.9,663.5,433,663.5,432.9,663.5L432.9,663.5z M294.7,652.3C294.7,652.3,294.7,652.3,294.7,652.3L294.7,652.3z
					 M405.7,630.9C405.7,630.9,405.7,630.9,405.7,630.9L405.7,630.9z M330.9,622.1L330.9,622.1C330.9,622.1,330.9,622.1,330.9,622.1
					z M327.6,622L327.6,622L327.6,622z M347.1,618.5L347.1,618.5C347.1,618.5,347.1,618.5,347.1,618.5z M361.3,743.8
					c-20.4,0-39.4-13.1-45.8-33.6c-7.9-25.2,6.2-52.1,31.4-60c3.3-1,6.6-1.7,10-2c1.8-0.1,3.4,1.2,3.6,3c0.2,1.8-1.2,3.4-3,3.6
					c-2.9,0.3-5.8,0.8-8.6,1.7c-21.7,6.8-33.8,30-27.1,51.7c6.8,21.7,30,33.9,51.7,27.1c21.7-6.8,33.8-30,27.1-51.7
					c-2.2-7.1-6.3-13.5-11.9-18.5c-1.4-1.2-1.5-3.3-0.3-4.7c1.2-1.4,3.3-1.5,4.7-0.3c6.5,5.7,11.2,13.2,13.8,21.5
					c7.9,25.2-6.2,52.1-31.4,60C370.9,743,366.1,743.8,361.3,743.8z"/>
			</g>
		</g>
		<g>
			<g>
				<path class="st3" d="M1925.8,1080.9v91.7c0,7.5-4.6,13.5-10.2,13.5h-334.2c-4.7,0-8.7,4.2-9.9,10.3l-6,31.9
					c-0.8,4.2-5.2,4.6-6.4,0.5l-7.7-27c-1.5-5.2-5.3-8.7-9.5-8.7h-14.4c-5.6,0-10.2-6.1-10.2-13.5v-94.3c0-7.4,4.5-13.5,10.1-13.5
					l388-4.4C1921.2,1067.3,1925.8,1073.3,1925.8,1080.9z"/>
				<g>
					<ellipse class="st2" cx="1569.1" cy="1127.3" rx="41" ry="42.1"/>
					<g>
						<linearGradient id="SVGID_151_" gradientUnits="userSpaceOnUse" x1="1556.585" y1="1111.6411" x2="1583.9498" y2="1111.6411">
							<stop  offset="0" style="stop-color:#DAE3FE"/>
							<stop  offset="1" style="stop-color:#E9EFFD"/>
						</linearGradient>
						<path class="st155" d="M1583.9,1110.2c0,7.6-6.1,15.7-13.7,15.7c-7.6,0-13.7-8.2-13.7-15.7c0-7.6,6.1-12.9,13.7-12.9
							C1577.8,1097.3,1583.9,1102.7,1583.9,1110.2z"/>
						<linearGradient id="SVGID_152_" gradientUnits="userSpaceOnUse" x1="1543.8159" y1="1142.6849" x2="1596.573" y2="1142.6849">
							<stop  offset="0" style="stop-color:#DAE3FE"/>
							<stop  offset="1" style="stop-color:#E9EFFD"/>
						</linearGradient>
						<path class="st156" d="M1553.3,1155.1h33.4c3.5,0,6.6-2.3,7.7-5.6l1.8-5.6c1.3-4.1-0.8-8.6-4.9-10c-13.6-5-27.6-4.3-42,0.5
							c-4,1.3-6.3,5.7-5.2,9.8l1.4,5.1C1546.4,1152.6,1549.6,1155.1,1553.3,1155.1z"/>
					</g>
				</g>
				<g>
					<linearGradient id="SVGID_153_" gradientUnits="userSpaceOnUse" x1="1633.3561" y1="1138.2708" x2="1893.837" y2="1138.2708">
						<stop  offset="0" style="stop-color:#DAE3FE"/>
						<stop  offset="1" style="stop-color:#E9EFFD"/>
					</linearGradient>
					<path class="st157" d="M1893.8,1138.3c0,4.4-3.7,8-8.3,8h-243.9c-4.6,0-8.3-3.6-8.3-8l0,0c0-4.4,3.7-8,8.3-8h243.9
						C1890.1,1130.3,1893.8,1133.9,1893.8,1138.3L1893.8,1138.3z"/>
					<linearGradient id="SVGID_154_" gradientUnits="userSpaceOnUse" x1="1636.0237" y1="1163.7695" x2="1778.347" y2="1163.7695">
						<stop  offset="0" style="stop-color:#DAE3FE"/>
						<stop  offset="1" style="stop-color:#E9EFFD"/>
					</linearGradient>
					<path class="st158" d="M1778.3,1163.8c0,4-3.2,7.2-7.2,7.2h-127.9c-4,0-7.2-3.2-7.2-7.2l0,0c0-4,3.2-7.2,7.2-7.2h127.9
						C1775.1,1156.5,1778.3,1159.8,1778.3,1163.8L1778.3,1163.8z"/>
					<linearGradient id="SVGID_155_" gradientUnits="userSpaceOnUse" x1="1787.2422" y1="1163.7695" x2="1893.9847" y2="1163.7695">
						<stop  offset="0" style="stop-color:#DAE3FE"/>
						<stop  offset="1" style="stop-color:#E9EFFD"/>
					</linearGradient>
					<path class="st159" d="M1894,1163.8c0,4-3.2,7.2-7.2,7.2h-92.3c-4,0-7.2-3.2-7.2-7.2l0,0c0-4,3.2-7.2,7.2-7.2h92.3
						C1890.7,1156.5,1894,1159.8,1894,1163.8L1894,1163.8z"/>
				</g>
				<path class="st2" d="M1776.1,1099.7c0,5.6-4.5,10.2-10.2,10.2h-123.1c-5.6,0-10.2-4.5-10.2-10.2v-0.8c0-5.6,4.5-10.2,10.2-10.2
					H1766c5.6,0,10.2,4.5,10.2,10.2V1099.7z"/>
			</g>
		</g>
		<g>
			<g>
				<linearGradient id="SVGID_156_" gradientUnits="userSpaceOnUse" x1="639.248" y1="1053.7661" x2="641.4175" y2="1624.2366">
					<stop  offset="0" style="stop-color:#09005D"/>
					<stop  offset="1" style="stop-color:#1A0F91"/>
				</linearGradient>
				<path class="st160" d="M803.9,1130.3c-0.1,80.6-0.7,358.8-5.5,457.2c-0.5,10.4-7.8,18.7-16.8,18.8c-44.2,0.7-206,1.4-278.1-3.7
					c-15-1.1-26.7-15.6-26.6-33.2c0.4-84.6,2.3-322.7,12.6-431.5c1.2-13,10.2-23.2,21.4-24.3c48.2-4.6,210.9-14.7,273.2-8.6
					C795.3,1106.2,803.9,1117.1,803.9,1130.3z"/>
				
					<linearGradient id="SVGID_157_" gradientUnits="userSpaceOnUse" x1="-5464.3755" y1="1195.8969" x2="-6132.6733" y2="2050.8149" gradientTransform="matrix(-0.9998 -2.210000e-02 -2.210000e-02 0.9998 -4875.7969 -93.2312)">
					<stop  offset="0" style="stop-color:#4042E2"/>
					<stop  offset="1" style="stop-color:#4F52FF"/>
				</linearGradient>
				<path class="st161" d="M783.6,1154.6c0.9,65.1,3.6,281.7-0.5,361.7c-0.6,11.7-8.7,21-18.7,21.4c-41.2,1.9-181.6,5-241.8-2
					c-10.8-1.3-19.1-11.7-19.4-24.5c-1.6-66.4-5.9-268.2-1.9-347.2c0.6-12.6,9.2-22.7,20-23.6c44.6-3.7,193.9-11.5,245.1-7.1
					C776,1134.1,783.5,1143.3,783.6,1154.6z"/>
				<linearGradient id="SVGID_158_" gradientUnits="userSpaceOnUse" x1="617.2155" y1="1118.9805" x2="678.1561" y2="1118.9805">
					<stop  offset="0" style="stop-color:#4042E2"/>
					<stop  offset="1" style="stop-color:#4F52FF"/>
				</linearGradient>
				<path class="st162" d="M678.2,1118.2L678.2,1118.2c-0.1,2.5-1.7,4.5-3.9,4.6c-10.4,0.4-39.8,1.6-53,2.2c-2.6,0.1-4.6-2.6-4-5.6
					l0.1-0.5c0.4-2,1.9-3.5,3.6-3.7c8.9-0.8,35.7-2.8,53.4-1.7C676.6,1113.6,678.2,1115.7,678.2,1118.2z"/>
			</g>
			<g>
				<linearGradient id="SVGID_159_" gradientUnits="userSpaceOnUse" x1="539.0267" y1="1336.1801" x2="745.9669" y2="1336.1801">
					<stop  offset="0" style="stop-color:#DAE3FE"/>
					<stop  offset="1" style="stop-color:#E9EFFD"/>
				</linearGradient>
				<circle class="st163" cx="642.5" cy="1336.2" r="103.5"/>
				<linearGradient id="SVGID_160_" gradientUnits="userSpaceOnUse" x1="578.155" y1="1336.1801" x2="706.8386" y2="1336.1801">
					<stop  offset="0" style="stop-color:#4042E2"/>
					<stop  offset="1" style="stop-color:#4F52FF"/>
				</linearGradient>
				<path class="st164" d="M706.1,1363.2c-1.6-5.5-5.6-10-11-12.1l-7.4-3c-6-2.4-12.8-0.4-16.7,4.7l-6.6,8.9
					c-10.4,0.3-22.4-3.6-33.1-11.6c-10-7.5-16.9-17.2-19.9-26.6c0-0.1,0-0.3,0.1-0.4c0.1-0.1,0.3-0.1,0.4,0l6-8
					c4.4-5.9,4.3-14.1-0.3-19.9l-4.9-6.2c-3.6-4.5-9.1-7.1-14.9-7c-5.8,0.1-11.2,2.8-14.7,7.5c-1.8,2.4-3.1,5.1-3.9,8
					c-5.5,19.4,10.1,48.7,38.9,70.3c28.8,21.5,61.3,28.3,78.4,17.6c2.6-1.6,4.8-3.6,6.6-6C706.6,1374.7,707.7,1368.8,706.1,1363.2z"
					/>
			</g>
			<g>
				<linearGradient id="SVGID_161_" gradientUnits="userSpaceOnUse" x1="487.5228" y1="1544.948" x2="520.481" y2="1544.948">
					<stop  offset="0" style="stop-color:#4042E2"/>
					<stop  offset="1" style="stop-color:#4F52FF"/>
				</linearGradient>
				<path class="st165" d="M519.4,1588.3c-17.4,0-31.8-14.2-31.8-31.6v-54c0-0.6,0.5-1.1,1.1-1.1c0.6,0,1.1,0.5,1.1,1.1v54
					c0,16.2,13.4,29.3,29.6,29.3c0.6,0,1.2,0.5,1.2,1.1C520.5,1587.8,520,1588.3,519.4,1588.3z"/>
			</g>
		</g>
	</g>
</g>
</svg>
