<?xml version="1.0" encoding="utf-8"?>
<!-- Generator: Adobe Illustrator 24.1.3, SVG Export Plug-In . SVG Version: 6.00 Build 0)  -->
<svg version="1.1" id="Layer_1" xmlns="http://www.w3.org/2000/svg" xmlns:xlink="http://www.w3.org/1999/xlink" x="0px" y="0px"
	 viewBox="0 0 1484.7 1195.1" style="enable-background:new 0 0 1484.7 1195.1;" xml:space="preserve">
<style type="text/css">
	.st0{fill:#FFFFFF;}
	.st1{fill:#3F9CBC;}
	.st2{fill:#5EA9CC;}
	.st3{fill:#D60F41;}
	.st4{fill:#FC446F;}
	.st5{fill:#F78D00;}
	.st6{fill:#FDA92F;}
	.st7{fill:#FFBE68;}
	.st8{fill:#04142D;}
	.st9{font-family:'Quicksand-Bold';}
	.st10{font-size:24px;}
	.st11{fill:#F49A82;}
	.st12{fill:#FFC9A0;}
	.st13{fill:#FDDBBD;}
	.st14{fill:url(#SVGID_1_);}
	.st15{fill:#EA816A;}
	.st16{fill:url(#SVGID_2_);}
	.st17{fill:url(#SVGID_3_);}
	.st18{fill:#6A9BEC;}
	.st19{fill:#4B75C9;}
	.st20{fill:#011124;}
	.st21{fill:#081A3D;}
</style>
<path class="st0" d="M1484.7,0v1194.9c-491.3-0.4-1115.7-1.8-1115.7-1.8s-19.3,1.3-48.8-0.3c-3.8-0.2-7.8-0.5-11.9-0.8
	c-18.1-1.4-36.1-3.7-54-6.9c-75.3-13.8-166.5-49-204-137.4c-102.9-242,67.2-445.1,209.8-526.8c3.4-2,6.8-3.9,10.2-5.7l4-2.2l0,0
	c8.6-4.7,16.9-9.6,25.1-14.5c4.3-2.6,8.5-5.3,12.7-8c11.8-7.6,23.2-15.5,34.1-23.7c2.4-1.8,4.8-3.6,7.1-5.4
	c11.1-8.6,21.9-17.4,32.1-26.4c10.3-9,20.2-18.3,29.9-27.8c217.3-214.3,247.5-509.5,713.7-363.4C1205.9,67.9,1347.2,9.4,1484.7,0z"
	/>
<path class="st1" d="M353.1,992.3c0,0,32.2-37.5,2-61.4c0,0-22.1-13.3-40-12.3c0,0,25.5,42.7,17.2,47s-25-49.7-25-49.7
	s-50.2-4.9-66.3,2.9c0,0,42.9,35.1,33.9,37.2s-55.4-32.4-55.4-32.4s-46.7,8-44.2,36.4s18.6,37.3,25.7,36.5s48.5-16.6,49.3-10.8
	s-24,24.7-41.4,25.6c0,0,32.9,36.3,54.8,25.8s23.8-27.1,37.4-33.3s25.3-6.2,19.7,0.1s-30.3,12.5-38.1,26.3
	c-7.8,13.8-14.8,23.1,7.8,19.7c22.7-3.4,59.4-20,61.1-38.9L353.1,992.3z"/>
<path class="st1" d="M198.2,960.9c0,0,126.8-4.9,154.9,31.4c0,0,6.2,18.6,25.3,35.5l3,8.1c0,0-22-23.2-29.8-24.6
	C351.5,1011.2,363.8,966.3,198.2,960.9z"/>
<path class="st1" d="M378.3,1027.7c0,0,27.2,20.1,29.1,56.1l-4.9,0.4c0,0-8.7-37.2-24.4-51.8C362.4,1018,378.3,1027.7,378.3,1027.7z
	"/>
<path class="st2" d="M465.6,945c0,0-51.2-28.7-27.3-67.6c0,0,19.1-23.9,39.6-30c0,0-10.9,58,0,59.4s7.5-65.5,7.5-65.5
	s53.9-25.9,75.1-23.9c0,0-33.4,56.6-22.5,55.3s48.4-58.7,48.4-58.7s55.3-10.2,64.2,22.5s-5.5,49.1-13.7,51.2s-60.7,1.4-59.4,8.2
	s36.8,17.7,56.6,11.6c0,0-21.8,53.9-50.5,51.2s-37.5-20.5-55.3-21.8s-30.7,3.4-21.8,8.2c8.9,4.8,38.9,1.6,53.2,13.8
	s25.9,19.7-0.7,25.2s-74.4,2-83.9-18.4L465.6,945z"/>
<path class="st1" d="M625.3,846.8c0,0-143.3,46.4-159.7,98.3c0,0,0.7,23.2-13.7,49.8v10.2c0,0,15-34.8,23.2-39.6
	C475.1,965.5,443,920.5,625.3,846.8z"/>
<path class="st1" d="M451.9,994.9c0,0-22.1,33.6-9.5,74.4l5.7-1.5c0,0-5.5-45,6-67.6S451.9,994.9,451.9,994.9z"/>
<path class="st2" d="M384.1,905.5c0,0,67.5-37.8,36-89c0,0-25.2-31.5-52.2-39.6c0,0,14.4,76.5,0,78.3s-9.9-86.3-9.9-86.3
	s-71.1-34.2-98.9-31.5c0,0,44.1,74.7,29.7,72.9S225,732.9,225,732.9s-72.9-13.5-84.6,29.7s7.2,64.8,18,67.5s80.1,1.8,78.3,10.8
	s-48.6,23.4-74.7,15.3c0,0,28.8,71.1,66.6,67.5s49.5-27,72.9-28.8s40.5,4.5,28.8,10.8s-51.3,2.1-70.2,18.1s-34.2,26,0.9,33.2
	s98,2.7,110.6-24.3L384.1,905.5z"/>
<path class="st1" d="M173.7,776c0,0,188.9,61.2,210.5,129.5c0,0-0.9,30.6,18,65.7v13.5c0,0-19.8-45.9-30.6-52.2
	C371.6,932.5,413.8,873.1,173.7,776z"/>
<path class="st1" d="M402.1,971.2c0,0,29.1,44.2,12.5,98.1l-7.5-2c0,0,7.3-59.3-8-89.1S402.1,971.2,402.1,971.2z"/>
<path class="st3" d="M386.4,1186.1c-73,0-132.1-59.2-132.1-132.2h264.3C518.6,1126.9,459.4,1186,386.4,1186.1
	C386.4,1186.1,386.4,1186.1,386.4,1186.1z"/>
<path class="st4" d="M353.9,1185c72.5,9,138.6-42.5,147.6-114.9c0.7-5.4,1-10.8,1-16.2h-32.8C469.6,1120.5,420,1176.8,353.9,1185z"
	/>
<path class="st3" d="M268.7,1176.5h235.3c9,0,16.3,7.3,16.3,16.3l0,0h-268C252.4,1183.8,259.7,1176.5,268.7,1176.5
	C268.7,1176.5,268.7,1176.5,268.7,1176.5z"/>
<rect x="251.3" y="1053.9" class="st4" width="271.6" height="4.1"/>
<path class="st5" d="M681.6,673.7l-41.2,489.9c0,0-4.3,29.7,17.8,29.7c36.3,0.1,180.8,0,180.8,0s-27.3-6.2-27-20.1
	c0.4-16.4,48.2-504.2,48.2-504.2L681.6,673.7z"/>
<path class="st6" d="M850.6,1184.5c-7.1,0-145.1,0.4-180.5,0c-15.4-0.2-18.1-13.7-18.3-22.5c0-2.4,0.1-4.9,0.5-7.3l1.1-12.7
	l2.7-32.5l2.4-28.7l3.1-36.8l2.6-31.1l29.3-348.1l178.5-4.6c0,0-20.1,204.1-34.3,352.7c-1.6,16.6-3.1,32.4-4.5,47.2
	c-0.5,4.7-0.9,9.4-1.3,13.9c-1.3,14.1-2.5,27-3.6,38.4c-0.6,6-1.1,11.6-1.5,16.7c-1.8,20-2.9,32.8-2.9,35.3c0,1.3,0.1,2.7,0.3,4
	C827.2,1184,847.9,1184.5,850.6,1184.5z"/>
<polygon class="st6" points="1105,407.1 248.1,407.1 348.4,810.3 362.2,865.5 408.9,1053.2 1277.3,1053.2 "/>
<polygon class="st5" points="248.1,407.1 234.1,411.8 390.4,1067.3 408.9,1053.2 "/>
<polygon class="st5" points="390.4,1067.3 1253.5,1067.3 1277.3,1053.2 408.9,1053.2 "/>
<rect x="693.5" y="1184.7" class="st5" width="186.9" height="8.9"/>
<polygon class="st7" points="1105,407.1 248.1,407.1 377.2,926.2 1244.1,926.4 "/>
<path class="st0" d="M866.1,992c-2.5-12.7-14.8-23.1-27.5-23.1S817.5,979.3,820,992s14.8,23.1,27.5,23.1S868.6,1004.8,866.1,992z"/>
<polygon class="st8" points="1203.7,903.9 401.3,903.9 310.4,541.9 303.4,514.1 297.5,490.5 283.6,434.9 1074.4,434.9 1089.7,490.5 
	1096.2,514.1 1103.9,541.9 "/>
<polygon class="st3" points="1074.4,434.9 283.6,434.9 297.5,490.5 1089.7,490.5 "/>
<text transform="matrix(1 0 0 1 328.25 471.09)" class="st0 st9 st10">Vida Khalili</text>
<path class="st3" d="M1349.5,800.1c-63.3,8.4,1.1,81.5-95.6,184c-69.9,74.1-223.2-61.3-301.7,14.8c-68.2,66.1,25.1,194.4,25.1,194.4
	h331.4C1501.9,1053.4,1402.3,793.2,1349.5,800.1z"/>
<path class="st11" d="M902.1,1103.5c-1.5,2.4-4.2,3.8-7,3.5l0,0c-5.5-0.3-12.7-4.5-20.3-9.7c-1-0.7-1.8-1.2-2.7-1.7l-0.6-0.4
	l-0.5-0.3c-7.8-4.6-8.4-1.8-23.8-9.7c-17.5-9-20.5-17.9-20-20.8c0.4-2.5,8.9-0.3,18.5,2.2l1.4,0.3l3.8,1c11.5,2.8,15.6-0.1,29.7-5.8
	c11.5-4.6,60.4-38.2,60.4-38.2l11.8,23.7c0,0-40.8,20.5-44.9,30.8c-2.2,5.5-0.8,10.5-2.1,15.6c-0.1,0.3-0.2,0.7-0.3,1
	C904.8,1098,903.7,1100.9,902.1,1103.5z"/>
<path class="st8" d="M902.1,1103.5c-1.5,2.4-4.2,3.8-7,3.5l0,0c-5.6-0.7-12.8-4.8-20.3-9.8c-1-0.7-1.9-1.2-2.7-1.7l-0.6-0.4
	l-0.5-0.3c-7.8-4.6-8.4-1.8-23.8-9.7c-17.5-9-20.5-17.9-20-20.8c0.4-2.5,8.9-0.3,18.5,2.2c6.3,8.1,14.7,14.3,24.2,18.1
	c12.4,4.9,26.9,6.2,36,9.3c-0.1,0.3-0.2,0.7-0.3,1C904.9,1098,903.7,1100.9,902.1,1103.5z"/>
<path class="st11" d="M943.3,1186.4c-1.2,8.1-12.7,7.4-25.8,5c-13-2.4-9.8,1.1-28.1,0.1s-24.3-7.6-25-10.2c-0.6-2.4,8.4-3.7,18-5.4
	c1.2-0.2,2.4-0.4,3.6-0.6c10.9-2,18.5-9.4,28.1-15.8c9.1-6,22-29.1,22-29.1l25.2,0.6c0,0-12.1,20.7-16.7,29.6
	c-2.7,5.3-2.2,12-1.6,17.2C943.6,1180.7,943.6,1183.6,943.3,1186.4z"/>
<path class="st8" d="M917.8,1192.3c-13.1-2-9.7,1.4-28.1,1c-18.4-0.4-24.6-9.8-25.3-12.5c-0.7-2.4,4.5-3,14.1-5l3.8-0.8
	c0,0,11.6,9.9,26.8,8.9c12.4-0.8,25.2-5.4,33.7-6c0.6,2.8,0.7,5.7,0.5,8.6C942.4,1194.7,930.9,1194.4,917.8,1192.3z"/>
<path class="st11" d="M992.1,811c0,0-6-14.7-12.6-15.3s-27.5-3.9-29-0.9s0,13.8,4.5,17.6s32.3,10.2,32.3,10.2L992.1,811z"/>
<path class="st12" d="M1038.3,942.7l-123.8,93.7c1.2,5.4,3.3,10.5,6.1,15.2c4.1,6.4,11.9,12.8,11.9,12.8s129.9-53.1,150.7-85.1
	S1038.3,942.7,1038.3,942.7z"/>
<path class="st13" d="M1241.2,950.8c0,0-158-44.2-192-31.1S922.4,1145,922.4,1145s2.5,3,9,5c6.1,1.9,20.5,1,20.5,1
	s89.5-85.4,99.4-109.4c9.9-24,13.2-46.6,24.4-45s147,47,175.4,14.1c28.4-32.9,18.4-73.1,18.4-73.1L1241.2,950.8z"/>
<radialGradient id="SVGID_1_" cx="1727.0006" cy="-109.5364" r="100.3174" gradientTransform="matrix(1 0 0 -1 -515.28 594.54)" gradientUnits="userSpaceOnUse">
	<stop  offset="0.57" style="stop-color:#130C0E"/>
	<stop  offset="0.8" style="stop-color:#130C0E"/>
	<stop  offset="1" style="stop-color:#130C0E"/>
</radialGradient>
<path class="st14" d="M1263.4,706.8c-24.3-14.9-24.1-34-23.1-50.6s-6.6-88.1-55.2-69.4c0,0-7.8-3.5-11.3-2.9c1.6,0.3,3.1,1,4.3,2
	c-5.6-0.3-13.7,0.1-20.4,3.9c-1.2,0.7-2.2,1.6-3.1,2.6l-0.2,0.2c-2.5,2.8-5,7.2-7.2,12.6c-0.2,0.5-0.4,1-0.6,1.5
	c-1.4,3.7-2.6,7.4-3.7,11.2c-2.1,7.6-3.6,15.3-4.7,23.2c-0.4,2.7-0.7,5.4-0.9,8.1c0,0.1,0,0.3,0,0.4c-0.3,3.8-0.6,7.7-0.7,11.6
	c-0.6,21.1,2.8,41.4,12.5,52.6c0.7,0.8,1.4,1.5,2.1,2.2c-0.4-0.7-0.7-1.6-1.1-2.5c-1.7-4.3-3.5-10.7-4.7-20.1
	c-0.3-2.4-0.6-5-0.8-7.8c0.2,1.8,2.3,16.1,7.5,27.4c0.9,2.1,2,4.1,3.3,5.9c0,0.1,0.1,0.1,0.1,0.2c0.7,0.4,1.3,0.9,2,1.4
	c11.5,8,26.3,21.6,40.6,36.4c0.2,0.2,0.3,0.4,0.5,0.6c5.7,5.9,11.3,12,16.5,18c8.6,9.7,16.7,19.8,24.2,30.4c6,8.7,9.5,15.4,9.2,18.8
	c0,0,4.3-7.4,9.2-15.6c0-0.1,0.1-0.2,0.1-0.2c6-10.1,12.7-21.3,12.8-21.4c2.9-3.9,5.4-7.9,7.6-12.2
	C1287.3,758.1,1296.5,727.2,1263.4,706.8z"/>
<path class="st11" d="M1157.5,720.1c-0.2,0.1,15.6,8.3,27.5,5c11.2-3,18.4-17.5,18.3-17.5c-4.7-0.9-6.1-7.4-6-35.3l-2.1,0.4
	l-35.9,7.1c0,0,0.8,11.3,0.8,21.9C1160.1,710.7,1159.6,719.1,1157.5,720.1z"/>
<path class="st15" d="M1159.3,679.8c0,0,0.8,11.3,0.8,21.9c20.1-0.6,30.7-18.9,35.1-29L1159.3,679.8z"/>
<radialGradient id="SVGID_2_" cx="1689.7418" cy="-37.3296" r="37.3468" gradientTransform="matrix(1 0 0 -1 -515.28 594.54)" gradientUnits="userSpaceOnUse">
	<stop  offset="0.57" style="stop-color:#130C0E"/>
	<stop  offset="0.8" style="stop-color:#130C0E"/>
	<stop  offset="1" style="stop-color:#130C0E"/>
</radialGradient>
<path class="st16" d="M1198.9,668.8c0,0,10.5-16.6,13.1-30.9c1.8-10.2-3.4-47.8-41.2-42.4c-7.6,1.1-14.9,3.8-21.3,8.1
	c-8.2,5.6-20.1,17.5-6.8,50.4l3.4,11.1L1198.9,668.8z"/>
<path class="st11" d="M1152.6,689.9c0,0,47.5,0.8,47.6-28.8s6.2-49.5-24.2-51.2s-36.3,9.5-38.7,19.4S1140.2,688.9,1152.6,689.9z"/>
<radialGradient id="SVGID_3_" cx="1690.0167" cy="-32.6214" r="33.7763" gradientTransform="matrix(1 0 0 -1 -515.28 594.54)" gradientUnits="userSpaceOnUse">
	<stop  offset="0.57" style="stop-color:#130C0E"/>
	<stop  offset="0.8" style="stop-color:#130C0E"/>
	<stop  offset="1" style="stop-color:#130C0E"/>
</radialGradient>
<path class="st17" d="M1197.5,615.3c0,0-32.5-22.2-42.8-6.8c-3.1-2.7-8.7-4.6-16,4.3c-11,13.3-1.2,37-1.2,37c4.5,0.5,5.6-15,8-22.5
	c1.8-5.7,7.8-11.5,10.6-14c4.2,9.3,15.6,31.7,31.3,35.8c20,5.1,28.6-0.2,28.6-0.2C1206.1,640.1,1199.6,628.3,1197.5,615.3z"/>
<path class="st18" d="M1282.8,961.1c-2.6,7.1-10.4,9-21,7.7c-20.1-2.3-49.9-15.8-71.5-25.2c-32.8-14.2-47.7-0.9-58.1-9.9
	s11.9-29.2-7.4-122.6c-6.6-31.7,35-99.6,35-99.6s2.9,18.4,43.5-3.9c0.2-0.1,17.1,22.4,32.2,51c16.7,31.6,32.6,69.7,27.9,89.4
	C1254.5,885.5,1290.3,940.4,1282.8,961.1z"/>
<path class="st18" d="M1159.8,711.5l-24.6,100.8c0,0-3,5.4-7.8,13.2c-11.3,18.2-32.1,49.1-45.4,52.2c-6.6,1.6-20.6-3.9-36-11.7
	c-29.3-14.8-63.8-38-63.8-38c-2.2-13.4,9.4-24.3,9.4-24.3s70.1,26.3,77,26.8c15.2,1.1,30.6-72.1,44.8-96.5
	C1123.7,716.4,1159.8,711.5,1159.8,711.5z"/>
<path class="st0" d="M1163.1,671.9c0,0-0.9,3.8-10.3,3.2c0,0-7.9-0.5-7.6-4.6C1145.3,670.5,1152.9,667.5,1163.1,671.9z"/>
<path class="st19" d="M1282.8,961.1c-2.6,7.1-10.4,9-21,7.7c-13.9-6.1-74-29.3-73.3-45.1c1-23.3,11.6-24.1,4.1-52.9
	c-6-23.1,49.5-66.2,58.4-75.5c16.7,31.6,17.1,33.1,12.4,52.7C1254.5,885.5,1290.3,940.4,1282.8,961.1z"/>
<path class="st19" d="M1127.4,825.5c-11.3,18.2-32.1,49.1-45.4,52.2c-6.6,1.6-20.6-3.9-36-11.7c11.3,2.9,22.3,2.8,32.9,1.8
	c11.6-1.1,14.9-15.3,33.2-36.5C1124,817.5,1126.9,821,1127.4,825.5z"/>
<path class="st11" d="M1183.1,870.2c0,0-10.1-7.8-19.6-6s-14.2,8.4-13.8,11.4s5.4,11.4,12.7,12.1s27.9-4.5,27.9-4.5L1183.1,870.2z"
	/>
<path class="st18" d="M1203.3,707.5c0,0,38.7,2.4,52.2,21.1c18.9,26.3,64.2,143.5,42.7,158.4c-24.2,16.8-117.9-0.5-117.9-0.5
	s-2.8-13.4,1.1-19.8s68.6-16.9,71.6-19.9s-37.3-58.1-37.3-67.1S1203.3,707.5,1203.3,707.5z"/>
<polygon class="st6" points="1173,922.9 1030.3,922.9 1004.5,833.1 1147,833.1 "/>
<polygon class="st5" points="1029.3,919.4 1217.3,919.4 1217.3,922.9 1030.3,922.9 "/>
<path class="st20" d="M384.7,1009h89.2c11.5,0,20.8,9.3,20.8,20.8v89.2c0,11.5-9.3,20.8-20.8,20.8h-89.2c-11.5,0-20.8-9.3-20.8-20.8
	v-89.2C364,1018.3,373.3,1009,384.7,1009z"/>
<path class="st21" d="M402,1009h89.2c11.5,0,20.8,9.3,20.8,20.8v89.2c0,11.5-9.3,20.8-20.8,20.8H402c-11.5,0-20.8-9.3-20.8-20.8
	v-89.2C381.3,1018.3,390.6,1009,402,1009z"/>
<path class="st5" d="M893.3,386.9h89.2c11.5,0,20.8,9.3,20.8,20.8v89.2c0,11.5-9.3,20.8-20.8,20.8h-89.2c-11.5,0-20.8-9.3-20.8-20.8
	v-89.2C872.5,396.2,881.8,386.9,893.3,386.9z"/>
<path class="st6" d="M910.6,386.9h89.2c11.5,0,20.8,9.3,20.8,20.8v89.2c0,11.5-9.3,20.8-20.8,20.8h-89.2c-11.5,0-20.8-9.3-20.8-20.8
	v-89.2C889.8,396.2,899.1,386.9,910.6,386.9z"/>
<path class="st1" d="M687.9,242.5h89.2c11.5,0,20.8,9.3,20.8,20.8v89.2c0,11.5-9.3,20.8-20.8,20.8h-89.2c-11.5,0-20.8-9.3-20.8-20.8
	v-89.2C667.1,251.8,676.4,242.5,687.9,242.5z"/>
<path class="st2" d="M705.2,242.5h89.2c11.5,0,20.8,9.3,20.8,20.8v89.2c0,11.5-9.3,20.8-20.8,20.8h-89.2c-11.5,0-20.8-9.3-20.8-20.8
	v-89.2C684.4,251.8,693.7,242.5,705.2,242.5z"/>
<path class="st0" d="M468.7,1080.7c0.5-2,0.8-4.1,0.8-6.2c0-1.9-0.2-3.8-0.7-5.6c-0.1-0.5-0.2-1-0.4-1.5c-0.3-1.2-0.8-2.3-1.3-3.5
	l2.3-1.9l4.8-3.9l0,0l-3.3-4l-0.5-0.7l0,0l-4.1-5l-6,5l0,0l-0.8,0.7l-0.3,0.3c-0.1-0.1-0.2-0.2-0.4-0.3c-0.3-0.2-0.6-0.4-1-0.7l0,0
	c-2.2-1.4-4.7-2.5-7.2-3.1v-9.3h-12.5v9.3c-2.6,0.7-5,1.7-7.2,3.1l0,0c-0.3,0.2-0.7,0.4-1,0.7c-1.4,1-2.7,2.1-3.8,3.3l-6-3.3
	l-1.2-0.7l0,0l-0.4-0.2l-0.5-0.3l-0.3,0.5l0,0l-0.4,0.7l-2.2,4.1l-3.2,5.7l3.8,2.1l2.7,1.5l1.6,0.9c-0.5,2.1-0.8,4.2-0.8,6.3
	c0,3.7,0.8,7.3,2.3,10.6l-7.1,5.8l7.9,9.6l7.1-5.8c2.6,1.9,5.5,3.3,8.7,4.1v9.2h12.5v-9.2c4.6-1.2,8.8-3.7,12.1-7.2l1.3,0.7l6.8,3.7
	l6-10.9L468.7,1080.7z M444.3,1089.7c-8.4,0.1-15.4-6.7-15.4-15.1c-0.1-6.9,4.5-13,11.2-14.9c1.4-0.4,2.8-0.6,4.3-0.6
	c5.6,0,10.8,3.1,13.5,8.1c4,7.4,1.2,16.7-6.3,20.7C449.3,1089,446.8,1089.6,444.3,1089.7L444.3,1089.7z"/>
<path class="st0" d="M929.3,434.9l-33.5,15.6v7.3l40.6,18.8v-8.9l-30.7-13.4v-0.2l30.7-13.4v-9L929.3,434.9z"/>
<path class="st0" d="M960.7,424.3l-3.2,10.7l-14.9,50.6h8.5L966,435l3.2-10.7L960.7,424.3z"/>
<path class="st0" d="M1003.3,445l-22-10.1l-7.1-3.3v9l29.2,12.5l2.2,0.9v0.2l-2.2,0.9l-29.2,12.5v8.9l29.2-13.4l11.4-5.2v-7.8
	L1003.3,445z"/>
<path class="st0" d="M730.8,273.2h2v-9.4H729c-10.3,0-16.8,4.5-16.8,14.9c0,2.9,0.2,5.8,0.6,8.7c0.4,2.9,0.6,5.7,0.7,8.6
	c0,3.3-0.8,7.3-8.4,7.5v8.5c7.6,0.2,8.4,4.4,8.4,7.5c-0.1,2.9-0.3,5.7-0.7,8.6c-0.3,2.9-0.5,5.8-0.6,8.7c0,11,6.8,15,16.7,15h4v-9.3
	h-2c-5.1,0-6.7-3.1-6.7-7.9c0-1.9,0.3-4,0.6-6.2c0.3-2.6,0.5-5.1,0.6-7.7c0.1-8.4-3.3-11.6-9.4-12.9v-0.2c6.1-1.3,9.5-4.4,9.4-12.8
	c-0.1-2.5-0.2-5-0.6-7.5c-0.2-2.3-0.6-4.3-0.6-6.3C724.1,276.2,725.9,273.2,730.8,273.2z"/>
<path class="st0" d="M780.2,294.7c0.1-2.9,0.3-5.7,0.7-8.6c0.4-2.9,0.6-5.8,0.7-8.7c0-10.4-6.5-14.9-16.9-14.9h-3.9v9.4h2
	c5,0.1,6.7,3,6.7,7.8c0,2.1-0.2,4.2-0.6,6.3c-0.3,2.5-0.5,5-0.6,7.5c-0.1,8.4,3.3,11.5,9.5,12.8v0.2c-6.2,1.3-9.6,4.5-9.5,12.9
	c0.1,2.6,0.2,5.2,0.6,7.7c0.3,2,0.5,4.1,0.6,6.2c0,4.8-1.7,7.8-6.7,7.9h-2v9.3h4c9.9,0,16.8-4,16.8-15c-0.1-2.9-0.3-5.8-0.7-8.7
	c-0.4-2.9-0.6-5.7-0.7-8.6c0-3.1,0.9-7.3,8.4-7.5v-8.5C781,301.9,780.2,298,780.2,294.7z"/>
<path class="st6" d="M617.3,530.4H340.6c-2.7,0-5-1.8-5.8-4.3l0,0c-0.9-3.2,0.9-6.5,4.1-7.4c0.5-0.1,1.1-0.2,1.6-0.2h276.7
	c2.7,0,5,1.8,5.8,4.3l0,0c0.9,3.2-0.9,6.5-4.1,7.4C618.4,530.3,617.8,530.4,617.3,530.4z"/>
<path class="st2" d="M945.9,557.7H347.1c-2.7,0-5-1.8-5.7-4.3l0,0c-0.9-3.2,0.9-6.5,4.1-7.4c0.5-0.1,1.1-0.2,1.6-0.2h598.8
	c2.7,0,5,1.8,5.8,4.3l0,0c0.9,3.2-0.9,6.5-4.1,7.4C947,557.6,946.5,557.7,945.9,557.7z"/>
<path class="st18" d="M743.8,585H353.9c-2.7,0-5-1.8-5.7-4.3l0,0c-0.9-3.2,0.9-6.5,4.1-7.4c0.5-0.1,1.1-0.2,1.6-0.2h389.9
	c2.7,0,5,1.8,5.7,4.3l0,0c0.9,3.2-0.9,6.5-4.1,7.4C744.9,584.9,744.4,585,743.8,585z"/>
<path class="st6" d="M677.5,729.5H400.7c-2.7,0-5-1.8-5.7-4.3l0,0c-0.9-3.2,0.9-6.5,4.1-7.4c0.5-0.1,1.1-0.2,1.6-0.2h276.7
	c2.7,0,5,1.8,5.7,4.3l0,0c0.9,3.2-0.9,6.5-4.1,7.4C678.5,729.5,678,729.5,677.5,729.5z"/>
<path class="st3" d="M804,784.1H414c-2.7,0-5-1.8-5.8-4.3l0,0c-0.9-3.2,0.9-6.5,4.1-7.4c0.5-0.1,1.1-0.2,1.6-0.2H804
	c2.7,0,5,1.8,5.7,4.3l0,0c0.9,3.2-0.9,6.5-4.1,7.4C805.1,784,804.5,784.1,804,784.1z"/>
<path class="st2" d="M594.4,624.9H364.8c-2.7,0-5-1.8-5.7-4.3l0,0c-0.9-3.2,0.9-6.5,4.1-7.4c0.5-0.1,1.1-0.2,1.6-0.2h229.6
	c2.7,0,5,1.8,5.7,4.3l0,0c0.9,3.2-0.9,6.5-4.1,7.4C595.5,624.9,595,624.9,594.4,624.9z"/>
<path class="st0" d="M1451,1192.2v2.7H252.7c-1.5,0-1.7-0.6-1.7-1.3c0-0.7,0.6-1.3,1.3-1.3H1451z"/>
</svg>
